M48
; DRILL file {KiCad (6.0.9-0)} date Saturday, March 11, 2023 at 08:55:50 pm
; FORMAT={-:-/ absolute / inch / decimal}
; #@! TF.CreationDate,2023-03-11T20:55:50-05:00
; #@! TF.GenerationSoftware,Kicad,Pcbnew,(6.0.9-0)
; #@! TF.FileFunction,Plated,1,2,PTH
FMAT,2
INCH
; #@! TA.AperFunction,Plated,PTH,ComponentDrill
T1C0.0315
; #@! TA.AperFunction,Plated,PTH,ComponentDrill
T2C0.0354
; #@! TA.AperFunction,Plated,PTH,ComponentDrill
T3C0.0362
; #@! TA.AperFunction,Plated,PTH,ComponentDrill
T4C0.0374
; #@! TA.AperFunction,Plated,PTH,ComponentDrill
T5C0.0433
; #@! TA.AperFunction,Plated,PTH,ComponentDrill
T6C0.0472
; #@! TA.AperFunction,Plated,PTH,ComponentDrill
T7C0.0906
%
G90
G05
T1
X4.875Y-3.025
X4.875Y-3.125
X4.875Y-3.225
X4.875Y-3.325
X4.95Y-3.5744
X4.95Y-3.6744
X4.95Y-3.7744
X5.175Y-3.025
X5.175Y-3.125
X5.175Y-3.225
X5.175Y-3.325
X5.65Y-3.8516
X5.65Y-3.95
T2
X4.075Y-2.85
X4.075Y-2.95
X4.0878Y-3.65
X4.0878Y-3.75
T3
X3.6177Y-2.8372
X3.6177Y-2.9356
X3.6177Y-3.0144
X3.6177Y-3.1128
X3.6177Y-3.5372
X3.6177Y-3.6356
X3.6177Y-3.7144
X3.6177Y-3.8128
X3.7209Y-2.8372
X3.7209Y-2.9356
X3.7209Y-3.0144
X3.7209Y-3.1128
X3.7209Y-3.5372
X3.7209Y-3.6356
X3.7209Y-3.7144
X3.7209Y-3.8128
T4
X6.0828Y-3.3008
X6.0828Y-3.3992
X6.1615Y-3.3008
X6.1615Y-3.3992
T5
X4.425Y-2.85
X4.425Y-3.6878
X4.525Y-2.85
X4.525Y-3.6878
X4.625Y-2.85
X4.625Y-3.6878
X5.625Y-3.025
X5.625Y-3.3045
T6
X3.9878Y-3.175
X3.9878Y-3.4
X4.5878Y-3.175
X4.5878Y-3.4
X4.875Y-2.75
X5.35Y-3.6
X5.475Y-2.75
X5.95Y-3.6
T7
X3.511Y-2.7163
X3.511Y-3.2337
X3.511Y-3.4163
X3.511Y-3.9337
X3.7346Y-2.7163
X3.7346Y-3.2337
X3.7346Y-3.4163
X3.7346Y-3.9337
X6.2741Y-3.1138
X6.2741Y-3.5862
T0
M30
