%TF.GenerationSoftware,KiCad,Pcbnew,(6.0.9-0)*%
%TF.CreationDate,2023-03-11T20:55:46-05:00*%
%TF.ProjectId,usb darksensor,75736220-6461-4726-9b73-656e736f722e,rev?*%
%TF.SameCoordinates,Original*%
%TF.FileFunction,Soldermask,Bot*%
%TF.FilePolarity,Negative*%
%FSLAX46Y46*%
G04 Gerber Fmt 4.6, Leading zero omitted, Abs format (unit mm)*
G04 Created by KiCad (PCBNEW (6.0.9-0)) date 2023-03-11 20:55:46*
%MOMM*%
%LPD*%
G01*
G04 APERTURE LIST*
%ADD10C,2.400000*%
%ADD11O,2.400000X2.400000*%
%ADD12R,1.600000X1.600000*%
%ADD13O,1.600000X1.600000*%
%ADD14R,1.905000X2.000000*%
%ADD15O,1.905000X2.000000*%
%ADD16C,1.600000*%
%ADD17C,4.000000*%
%ADD18O,1.600000X2.100000*%
%ADD19R,1.800000X1.800000*%
%ADD20C,1.800000*%
%ADD21R,1.500000X1.500000*%
%ADD22C,1.500000*%
%ADD23C,3.000000*%
%ADD24C,1.440000*%
G04 APERTURE END LIST*
D10*
%TO.C,R5*%
X101290000Y-80645000D03*
D11*
X116530000Y-80645000D03*
%TD*%
D12*
%TO.C,U1*%
X123825000Y-76835000D03*
D13*
X123825000Y-79375000D03*
X123825000Y-81915000D03*
X123825000Y-84455000D03*
X131445000Y-84455000D03*
X131445000Y-81915000D03*
X131445000Y-79375000D03*
X131445000Y-76835000D03*
%TD*%
D14*
%TO.C,Q2*%
X117475000Y-72390000D03*
D15*
X114935000Y-72390000D03*
X112395000Y-72390000D03*
%TD*%
D12*
%TO.C,C1*%
X143510000Y-100330000D03*
D16*
X143510000Y-97830000D03*
%TD*%
D12*
%TO.C,J1*%
X154502500Y-83840000D03*
D16*
X154502500Y-86340000D03*
X156502500Y-86340000D03*
X156502500Y-83840000D03*
D17*
X159362500Y-79090000D03*
X159362500Y-91090000D03*
%TD*%
D18*
%TO.C,R2*%
X142875000Y-76835000D03*
D13*
X142875000Y-83935000D03*
%TD*%
D10*
%TO.C,R1*%
X123825000Y-69850000D03*
D11*
X139065000Y-69850000D03*
%TD*%
D19*
%TO.C,D1*%
X103830000Y-92710000D03*
D20*
X103830000Y-95250000D03*
%TD*%
D10*
%TO.C,R3*%
X101290000Y-86360000D03*
D11*
X116530000Y-86360000D03*
%TD*%
D21*
%TO.C,J2*%
X94510000Y-89845000D03*
D22*
X94510000Y-92345000D03*
X94510000Y-94345000D03*
X94510000Y-96845000D03*
X91890000Y-89845000D03*
X91890000Y-92345000D03*
X91890000Y-94345000D03*
X91890000Y-96845000D03*
D23*
X94860000Y-99915000D03*
X89180000Y-99915000D03*
X94860000Y-86775000D03*
X89180000Y-86775000D03*
%TD*%
D14*
%TO.C,Q1*%
X117475000Y-93670000D03*
D15*
X114935000Y-93670000D03*
X112395000Y-93670000D03*
%TD*%
D19*
%TO.C,D2*%
X103505000Y-74930000D03*
D20*
X103505000Y-72390000D03*
%TD*%
D24*
%TO.C,RV1*%
X125730000Y-95870000D03*
X125730000Y-93330000D03*
X125730000Y-90790000D03*
%TD*%
D10*
%TO.C,R4*%
X151130000Y-91440000D03*
D11*
X135890000Y-91440000D03*
%TD*%
D21*
%TO.C,J3*%
X94510000Y-72065000D03*
D22*
X94510000Y-74565000D03*
X94510000Y-76565000D03*
X94510000Y-79065000D03*
X91890000Y-72065000D03*
X91890000Y-74565000D03*
X91890000Y-76565000D03*
X91890000Y-79065000D03*
D23*
X94860000Y-82135000D03*
X94860000Y-68995000D03*
X89180000Y-82135000D03*
X89180000Y-68995000D03*
%TD*%
M02*
