%TF.GenerationSoftware,KiCad,Pcbnew,(6.0.9-0)*%
%TF.CreationDate,2023-03-11T20:55:46-05:00*%
%TF.ProjectId,usb darksensor,75736220-6461-4726-9b73-656e736f722e,rev?*%
%TF.SameCoordinates,Original*%
%TF.FileFunction,Copper,L1,Top*%
%TF.FilePolarity,Positive*%
%FSLAX46Y46*%
G04 Gerber Fmt 4.6, Leading zero omitted, Abs format (unit mm)*
G04 Created by KiCad (PCBNEW (6.0.9-0)) date 2023-03-11 20:55:46*
%MOMM*%
%LPD*%
G01*
G04 APERTURE LIST*
%TA.AperFunction,ComponentPad*%
%ADD10C,2.400000*%
%TD*%
%TA.AperFunction,ComponentPad*%
%ADD11O,2.400000X2.400000*%
%TD*%
%TA.AperFunction,ComponentPad*%
%ADD12R,1.600000X1.600000*%
%TD*%
%TA.AperFunction,ComponentPad*%
%ADD13O,1.600000X1.600000*%
%TD*%
%TA.AperFunction,ComponentPad*%
%ADD14R,1.905000X2.000000*%
%TD*%
%TA.AperFunction,ComponentPad*%
%ADD15O,1.905000X2.000000*%
%TD*%
%TA.AperFunction,ComponentPad*%
%ADD16C,1.600000*%
%TD*%
%TA.AperFunction,ComponentPad*%
%ADD17C,4.000000*%
%TD*%
%TA.AperFunction,ComponentPad*%
%ADD18O,1.600000X2.100000*%
%TD*%
%TA.AperFunction,ComponentPad*%
%ADD19R,1.800000X1.800000*%
%TD*%
%TA.AperFunction,ComponentPad*%
%ADD20C,1.800000*%
%TD*%
%TA.AperFunction,ComponentPad*%
%ADD21R,1.500000X1.500000*%
%TD*%
%TA.AperFunction,ComponentPad*%
%ADD22C,1.500000*%
%TD*%
%TA.AperFunction,ComponentPad*%
%ADD23C,3.000000*%
%TD*%
%TA.AperFunction,ComponentPad*%
%ADD24C,1.440000*%
%TD*%
G04 APERTURE END LIST*
D10*
%TO.P,R5,1*%
%TO.N,Net-(D2-Pad1)*%
X101290000Y-80645000D03*
D11*
%TO.P,R5,2*%
%TO.N,GND*%
X116530000Y-80645000D03*
%TD*%
D12*
%TO.P,U1,1*%
%TO.N,/NIGHT_OUT*%
X123825000Y-76835000D03*
D13*
%TO.P,U1,2,-*%
%TO.N,/VPOT*%
X123825000Y-79375000D03*
%TO.P,U1,3,+*%
%TO.N,/VPHOTO*%
X123825000Y-81915000D03*
%TO.P,U1,4,V-*%
%TO.N,GND*%
X123825000Y-84455000D03*
%TO.P,U1,5,+*%
%TO.N,/VPOT*%
X131445000Y-84455000D03*
%TO.P,U1,6,-*%
%TO.N,/VPHOTO*%
X131445000Y-81915000D03*
%TO.P,U1,7*%
%TO.N,/DAY_OUT*%
X131445000Y-79375000D03*
%TO.P,U1,8,V+*%
%TO.N,VCC*%
X131445000Y-76835000D03*
%TD*%
D14*
%TO.P,Q2,1,B*%
%TO.N,/DAY_OUT*%
X117475000Y-72390000D03*
D15*
%TO.P,Q2,2,C*%
%TO.N,VCC*%
X114935000Y-72390000D03*
%TO.P,Q2,3,E*%
%TO.N,Net-(D2-Pad2)*%
X112395000Y-72390000D03*
%TD*%
D12*
%TO.P,C1,1*%
%TO.N,VCC*%
X143510000Y-100330000D03*
D16*
%TO.P,C1,2*%
%TO.N,GND*%
X143510000Y-97830000D03*
%TD*%
D12*
%TO.P,J1,1,VBUS*%
%TO.N,VCC*%
X154502500Y-83840000D03*
D16*
%TO.P,J1,2,D-*%
%TO.N,unconnected-(J1-Pad2)*%
X154502500Y-86340000D03*
%TO.P,J1,3,D+*%
%TO.N,unconnected-(J1-Pad3)*%
X156502500Y-86340000D03*
%TO.P,J1,4,GND*%
%TO.N,GND*%
X156502500Y-83840000D03*
D17*
%TO.P,J1,5,Shield*%
X159362500Y-79090000D03*
X159362500Y-91090000D03*
%TD*%
D18*
%TO.P,R2,1*%
%TO.N,/VPHOTO*%
X142875000Y-76835000D03*
D13*
%TO.P,R2,2*%
%TO.N,GND*%
X142875000Y-83935000D03*
%TD*%
D10*
%TO.P,R1,1*%
%TO.N,VCC*%
X123825000Y-69850000D03*
D11*
%TO.P,R1,2*%
%TO.N,/VPHOTO*%
X139065000Y-69850000D03*
%TD*%
D19*
%TO.P,D1,1,K*%
%TO.N,Net-(D1-Pad1)*%
X103830000Y-92710000D03*
D20*
%TO.P,D1,2,A*%
%TO.N,/VOUT*%
X103830000Y-95250000D03*
%TD*%
D10*
%TO.P,R3,1*%
%TO.N,Net-(D1-Pad1)*%
X101290000Y-86360000D03*
D11*
%TO.P,R3,2*%
%TO.N,GND*%
X116530000Y-86360000D03*
%TD*%
D21*
%TO.P,J2,1,VBUS1*%
%TO.N,/VOUT*%
X94510000Y-89845000D03*
D22*
%TO.P,J2,2,D1-*%
%TO.N,unconnected-(J2-Pad2)*%
X94510000Y-92345000D03*
%TO.P,J2,3,D1+*%
%TO.N,unconnected-(J2-Pad3)*%
X94510000Y-94345000D03*
%TO.P,J2,4,GND1*%
%TO.N,GND*%
X94510000Y-96845000D03*
%TO.P,J2,5,VBUS2*%
%TO.N,/VOUT*%
X91890000Y-89845000D03*
%TO.P,J2,6,D2-*%
%TO.N,unconnected-(J2-Pad6)*%
X91890000Y-92345000D03*
%TO.P,J2,7,D2+*%
%TO.N,unconnected-(J2-Pad7)*%
X91890000Y-94345000D03*
%TO.P,J2,8,GND2*%
%TO.N,GND*%
X91890000Y-96845000D03*
D23*
%TO.P,J2,9,Shield*%
X94860000Y-99915000D03*
X89180000Y-99915000D03*
X94860000Y-86775000D03*
X89180000Y-86775000D03*
%TD*%
D14*
%TO.P,Q1,1,B*%
%TO.N,/NIGHT_OUT*%
X117475000Y-93670000D03*
D15*
%TO.P,Q1,2,C*%
%TO.N,VCC*%
X114935000Y-93670000D03*
%TO.P,Q1,3,E*%
%TO.N,/VOUT*%
X112395000Y-93670000D03*
%TD*%
D19*
%TO.P,D2,1,K*%
%TO.N,Net-(D2-Pad1)*%
X103505000Y-74930000D03*
D20*
%TO.P,D2,2,A*%
%TO.N,Net-(D2-Pad2)*%
X103505000Y-72390000D03*
%TD*%
D24*
%TO.P,RV1,1,1*%
%TO.N,Net-(R4-Pad2)*%
X125730000Y-95870000D03*
%TO.P,RV1,2,2*%
%TO.N,/VPOT*%
X125730000Y-93330000D03*
%TO.P,RV1,3,3*%
%TO.N,GND*%
X125730000Y-90790000D03*
%TD*%
D10*
%TO.P,R4,1*%
%TO.N,VCC*%
X151130000Y-91440000D03*
D11*
%TO.P,R4,2*%
%TO.N,Net-(R4-Pad2)*%
X135890000Y-91440000D03*
%TD*%
D21*
%TO.P,J3,1,VBUS1*%
%TO.N,Net-(D2-Pad2)*%
X94510000Y-72065000D03*
D22*
%TO.P,J3,2,D1-*%
%TO.N,unconnected-(J3-Pad2)*%
X94510000Y-74565000D03*
%TO.P,J3,3,D1+*%
%TO.N,unconnected-(J3-Pad3)*%
X94510000Y-76565000D03*
%TO.P,J3,4,GND1*%
%TO.N,GND*%
X94510000Y-79065000D03*
%TO.P,J3,5,VBUS2*%
%TO.N,Net-(D2-Pad2)*%
X91890000Y-72065000D03*
%TO.P,J3,6,D2-*%
%TO.N,unconnected-(J3-Pad6)*%
X91890000Y-74565000D03*
%TO.P,J3,7,D2+*%
%TO.N,unconnected-(J3-Pad7)*%
X91890000Y-76565000D03*
%TO.P,J3,8,GND2*%
%TO.N,GND*%
X91890000Y-79065000D03*
D23*
%TO.P,J3,9,Shield*%
X94860000Y-82135000D03*
X94860000Y-68995000D03*
X89180000Y-82135000D03*
X89180000Y-68995000D03*
%TD*%
M02*
