%TF.GenerationSoftware,KiCad,Pcbnew,(6.0.9-0)*%
%TF.CreationDate,2023-03-11T20:55:46-05:00*%
%TF.ProjectId,usb darksensor,75736220-6461-4726-9b73-656e736f722e,rev?*%
%TF.SameCoordinates,Original*%
%TF.FileFunction,Legend,Top*%
%TF.FilePolarity,Positive*%
%FSLAX46Y46*%
G04 Gerber Fmt 4.6, Leading zero omitted, Abs format (unit mm)*
G04 Created by KiCad (PCBNEW (6.0.9-0)) date 2023-03-11 20:55:46*
%MOMM*%
%LPD*%
G01*
G04 APERTURE LIST*
%ADD10C,0.150000*%
%ADD11C,0.120000*%
G04 APERTURE END LIST*
D10*
X151590119Y-98197380D02*
X151590119Y-97197380D01*
X151828214Y-97197380D01*
X151971071Y-97245000D01*
X152066309Y-97340238D01*
X152113928Y-97435476D01*
X152161547Y-97625952D01*
X152161547Y-97768809D01*
X152113928Y-97959285D01*
X152066309Y-98054523D01*
X151971071Y-98149761D01*
X151828214Y-98197380D01*
X151590119Y-98197380D01*
X152542500Y-97911666D02*
X153018690Y-97911666D01*
X152447261Y-98197380D02*
X152780595Y-97197380D01*
X153113928Y-98197380D01*
X153447261Y-98197380D02*
X153447261Y-97197380D01*
X154018690Y-98197380D01*
X154018690Y-97197380D01*
X155018690Y-97245000D02*
X154923452Y-97197380D01*
X154780595Y-97197380D01*
X154637738Y-97245000D01*
X154542500Y-97340238D01*
X154494880Y-97435476D01*
X154447261Y-97625952D01*
X154447261Y-97768809D01*
X154494880Y-97959285D01*
X154542500Y-98054523D01*
X154637738Y-98149761D01*
X154780595Y-98197380D01*
X154875833Y-98197380D01*
X155018690Y-98149761D01*
X155066309Y-98102142D01*
X155066309Y-97768809D01*
X154875833Y-97768809D01*
X155494880Y-97673571D02*
X155828214Y-97673571D01*
X155971071Y-98197380D02*
X155494880Y-98197380D01*
X155494880Y-97197380D01*
X155971071Y-97197380D01*
X156971071Y-98197380D02*
X156637738Y-97721190D01*
X156399642Y-98197380D02*
X156399642Y-97197380D01*
X156780595Y-97197380D01*
X156875833Y-97245000D01*
X156923452Y-97292619D01*
X156971071Y-97387857D01*
X156971071Y-97530714D01*
X156923452Y-97625952D01*
X156875833Y-97673571D01*
X156780595Y-97721190D01*
X156399642Y-97721190D01*
X157447261Y-98149761D02*
X157447261Y-98197380D01*
X157399642Y-98292619D01*
X157352023Y-98340238D01*
X158637738Y-98197380D02*
X158637738Y-97197380D01*
X158971071Y-97911666D01*
X159304404Y-97197380D01*
X159304404Y-98197380D01*
X159971071Y-97197380D02*
X160161547Y-97197380D01*
X160256785Y-97245000D01*
X160352023Y-97340238D01*
X160399642Y-97530714D01*
X160399642Y-97864047D01*
X160352023Y-98054523D01*
X160256785Y-98149761D01*
X160161547Y-98197380D01*
X159971071Y-98197380D01*
X159875833Y-98149761D01*
X159780595Y-98054523D01*
X159732976Y-97864047D01*
X159732976Y-97530714D01*
X159780595Y-97340238D01*
X159875833Y-97245000D01*
X159971071Y-97197380D01*
X160828214Y-98197380D02*
X160828214Y-97197380D01*
X161399642Y-98197380D01*
X161399642Y-97197380D01*
X162971071Y-97673571D02*
X162637738Y-97673571D01*
X162637738Y-98197380D02*
X162637738Y-97197380D01*
X163113928Y-97197380D01*
X164066309Y-98197380D02*
X163732976Y-97721190D01*
X163494880Y-98197380D02*
X163494880Y-97197380D01*
X163875833Y-97197380D01*
X163971071Y-97245000D01*
X164018690Y-97292619D01*
X164066309Y-97387857D01*
X164066309Y-97530714D01*
X164018690Y-97625952D01*
X163971071Y-97673571D01*
X163875833Y-97721190D01*
X163494880Y-97721190D01*
X164494880Y-97673571D02*
X164828214Y-97673571D01*
X164971071Y-98197380D02*
X164494880Y-98197380D01*
X164494880Y-97197380D01*
X164971071Y-97197380D01*
X165971071Y-98197380D02*
X165637738Y-97721190D01*
X165399642Y-98197380D02*
X165399642Y-97197380D01*
X165780595Y-97197380D01*
X165875833Y-97245000D01*
X165923452Y-97292619D01*
X165971071Y-97387857D01*
X165971071Y-97530714D01*
X165923452Y-97625952D01*
X165875833Y-97673571D01*
X165780595Y-97721190D01*
X165399642Y-97721190D01*
X166399642Y-97673571D02*
X166732976Y-97673571D01*
X166875833Y-98197380D02*
X166399642Y-98197380D01*
X166399642Y-97197380D01*
X166875833Y-97197380D01*
X167304404Y-98102142D02*
X167352023Y-98149761D01*
X167304404Y-98197380D01*
X167256785Y-98149761D01*
X167304404Y-98102142D01*
X167304404Y-98197380D01*
X167304404Y-97578333D02*
X167352023Y-97625952D01*
X167304404Y-97673571D01*
X167256785Y-97625952D01*
X167304404Y-97578333D01*
X167304404Y-97673571D01*
X148161547Y-99807380D02*
X148161547Y-98807380D01*
X148399642Y-98807380D01*
X148542500Y-98855000D01*
X148637738Y-98950238D01*
X148685357Y-99045476D01*
X148732976Y-99235952D01*
X148732976Y-99378809D01*
X148685357Y-99569285D01*
X148637738Y-99664523D01*
X148542500Y-99759761D01*
X148399642Y-99807380D01*
X148161547Y-99807380D01*
X149352023Y-98807380D02*
X149542500Y-98807380D01*
X149637738Y-98855000D01*
X149732976Y-98950238D01*
X149780595Y-99140714D01*
X149780595Y-99474047D01*
X149732976Y-99664523D01*
X149637738Y-99759761D01*
X149542500Y-99807380D01*
X149352023Y-99807380D01*
X149256785Y-99759761D01*
X149161547Y-99664523D01*
X149113928Y-99474047D01*
X149113928Y-99140714D01*
X149161547Y-98950238D01*
X149256785Y-98855000D01*
X149352023Y-98807380D01*
X150971071Y-99807380D02*
X150971071Y-98807380D01*
X151542500Y-99807380D01*
X151542500Y-98807380D01*
X152209166Y-98807380D02*
X152399642Y-98807380D01*
X152494880Y-98855000D01*
X152590119Y-98950238D01*
X152637738Y-99140714D01*
X152637738Y-99474047D01*
X152590119Y-99664523D01*
X152494880Y-99759761D01*
X152399642Y-99807380D01*
X152209166Y-99807380D01*
X152113928Y-99759761D01*
X152018690Y-99664523D01*
X151971071Y-99474047D01*
X151971071Y-99140714D01*
X152018690Y-98950238D01*
X152113928Y-98855000D01*
X152209166Y-98807380D01*
X152923452Y-98807380D02*
X153494880Y-98807380D01*
X153209166Y-99807380D02*
X153209166Y-98807380D01*
X154590119Y-99283571D02*
X154923452Y-99283571D01*
X155066309Y-99807380D02*
X154590119Y-99807380D01*
X154590119Y-98807380D01*
X155066309Y-98807380D01*
X155399642Y-98807380D02*
X156066309Y-99807380D01*
X156066309Y-98807380D02*
X155399642Y-99807380D01*
X157018690Y-99712142D02*
X156971071Y-99759761D01*
X156828214Y-99807380D01*
X156732976Y-99807380D01*
X156590119Y-99759761D01*
X156494880Y-99664523D01*
X156447261Y-99569285D01*
X156399642Y-99378809D01*
X156399642Y-99235952D01*
X156447261Y-99045476D01*
X156494880Y-98950238D01*
X156590119Y-98855000D01*
X156732976Y-98807380D01*
X156828214Y-98807380D01*
X156971071Y-98855000D01*
X157018690Y-98902619D01*
X157447261Y-99283571D02*
X157780595Y-99283571D01*
X157923452Y-99807380D02*
X157447261Y-99807380D01*
X157447261Y-98807380D01*
X157923452Y-98807380D01*
X158352023Y-99283571D02*
X158685357Y-99283571D01*
X158828214Y-99807380D02*
X158352023Y-99807380D01*
X158352023Y-98807380D01*
X158828214Y-98807380D01*
X159256785Y-99807380D02*
X159256785Y-98807380D01*
X159494880Y-98807380D01*
X159637738Y-98855000D01*
X159732976Y-98950238D01*
X159780595Y-99045476D01*
X159828214Y-99235952D01*
X159828214Y-99378809D01*
X159780595Y-99569285D01*
X159732976Y-99664523D01*
X159637738Y-99759761D01*
X159494880Y-99807380D01*
X159256785Y-99807380D01*
X161209166Y-98807380D02*
X161399642Y-98807380D01*
X161494880Y-98855000D01*
X161590119Y-98950238D01*
X161637738Y-99140714D01*
X161637738Y-99474047D01*
X161590119Y-99664523D01*
X161494880Y-99759761D01*
X161399642Y-99807380D01*
X161209166Y-99807380D01*
X161113928Y-99759761D01*
X161018690Y-99664523D01*
X160971071Y-99474047D01*
X160971071Y-99140714D01*
X161018690Y-98950238D01*
X161113928Y-98855000D01*
X161209166Y-98807380D01*
X162066309Y-99807380D02*
X162066309Y-98807380D01*
X162637738Y-99807380D01*
X162637738Y-98807380D01*
X163113928Y-99283571D02*
X163447261Y-99283571D01*
X163590119Y-99807380D02*
X163113928Y-99807380D01*
X163113928Y-98807380D01*
X163590119Y-98807380D01*
X164732976Y-99521666D02*
X165209166Y-99521666D01*
X164637738Y-99807380D02*
X164971071Y-98807380D01*
X165304404Y-99807380D01*
X165637738Y-99807380D02*
X165637738Y-98807380D01*
X165971071Y-99521666D01*
X166304404Y-98807380D01*
X166304404Y-99807380D01*
X166780595Y-99807380D02*
X166780595Y-98807380D01*
X167161547Y-98807380D01*
X167256785Y-98855000D01*
X167304404Y-98902619D01*
X167352023Y-98997857D01*
X167352023Y-99140714D01*
X167304404Y-99235952D01*
X167256785Y-99283571D01*
X167161547Y-99331190D01*
X166780595Y-99331190D01*
X155923452Y-100417380D02*
X156113928Y-100417380D01*
X156209166Y-100465000D01*
X156304404Y-100560238D01*
X156352023Y-100750714D01*
X156352023Y-101084047D01*
X156304404Y-101274523D01*
X156209166Y-101369761D01*
X156113928Y-101417380D01*
X155923452Y-101417380D01*
X155828214Y-101369761D01*
X155732976Y-101274523D01*
X155685357Y-101084047D01*
X155685357Y-100750714D01*
X155732976Y-100560238D01*
X155828214Y-100465000D01*
X155923452Y-100417380D01*
X156780595Y-101417380D02*
X156780595Y-100417380D01*
X157352023Y-101417380D01*
X157352023Y-100417380D01*
X158590119Y-100893571D02*
X158923452Y-100893571D01*
X159066309Y-101417380D02*
X158590119Y-101417380D01*
X158590119Y-100417380D01*
X159066309Y-100417380D01*
X159494880Y-101417380D02*
X159494880Y-100417380D01*
X159828214Y-100417380D02*
X160399642Y-100417380D01*
X160113928Y-101417380D02*
X160113928Y-100417380D01*
X160732976Y-101417380D02*
X160732976Y-100417380D01*
X160732976Y-100893571D02*
X161304404Y-100893571D01*
X161304404Y-101417380D02*
X161304404Y-100417380D01*
X161780595Y-100893571D02*
X162113928Y-100893571D01*
X162256785Y-101417380D02*
X161780595Y-101417380D01*
X161780595Y-100417380D01*
X162256785Y-100417380D01*
X163256785Y-101417380D02*
X162923452Y-100941190D01*
X162685357Y-101417380D02*
X162685357Y-100417380D01*
X163066309Y-100417380D01*
X163161547Y-100465000D01*
X163209166Y-100512619D01*
X163256785Y-100607857D01*
X163256785Y-100750714D01*
X163209166Y-100845952D01*
X163161547Y-100893571D01*
X163066309Y-100941190D01*
X162685357Y-100941190D01*
X164399642Y-101369761D02*
X164542500Y-101417380D01*
X164780595Y-101417380D01*
X164875833Y-101369761D01*
X164923452Y-101322142D01*
X164971071Y-101226904D01*
X164971071Y-101131666D01*
X164923452Y-101036428D01*
X164875833Y-100988809D01*
X164780595Y-100941190D01*
X164590119Y-100893571D01*
X164494880Y-100845952D01*
X164447261Y-100798333D01*
X164399642Y-100703095D01*
X164399642Y-100607857D01*
X164447261Y-100512619D01*
X164494880Y-100465000D01*
X164590119Y-100417380D01*
X164828214Y-100417380D01*
X164971071Y-100465000D01*
X165399642Y-101417380D02*
X165399642Y-100417380D01*
X165875833Y-101417380D02*
X165875833Y-100417380D01*
X166113928Y-100417380D01*
X166256785Y-100465000D01*
X166352023Y-100560238D01*
X166399642Y-100655476D01*
X166447261Y-100845952D01*
X166447261Y-100988809D01*
X166399642Y-101179285D01*
X166352023Y-101274523D01*
X166256785Y-101369761D01*
X166113928Y-101417380D01*
X165875833Y-101417380D01*
X166875833Y-100893571D02*
X167209166Y-100893571D01*
X167352023Y-101417380D02*
X166875833Y-101417380D01*
X166875833Y-100417380D01*
X167352023Y-100417380D01*
X147875833Y-102027380D02*
X148066309Y-102027380D01*
X148161547Y-102075000D01*
X148256785Y-102170238D01*
X148304404Y-102360714D01*
X148304404Y-102694047D01*
X148256785Y-102884523D01*
X148161547Y-102979761D01*
X148066309Y-103027380D01*
X147875833Y-103027380D01*
X147780595Y-102979761D01*
X147685357Y-102884523D01*
X147637738Y-102694047D01*
X147637738Y-102360714D01*
X147685357Y-102170238D01*
X147780595Y-102075000D01*
X147875833Y-102027380D01*
X149304404Y-103027380D02*
X148971071Y-102551190D01*
X148732976Y-103027380D02*
X148732976Y-102027380D01*
X149113928Y-102027380D01*
X149209166Y-102075000D01*
X149256785Y-102122619D01*
X149304404Y-102217857D01*
X149304404Y-102360714D01*
X149256785Y-102455952D01*
X149209166Y-102503571D01*
X149113928Y-102551190D01*
X148732976Y-102551190D01*
X150352023Y-102027380D02*
X150923452Y-102027380D01*
X150637738Y-103027380D02*
X150637738Y-102027380D01*
X151256785Y-103027380D02*
X151256785Y-102027380D01*
X151256785Y-102503571D02*
X151828214Y-102503571D01*
X151828214Y-103027380D02*
X151828214Y-102027380D01*
X152304404Y-102503571D02*
X152637738Y-102503571D01*
X152780595Y-103027380D02*
X152304404Y-103027380D01*
X152304404Y-102027380D01*
X152780595Y-102027380D01*
X153828214Y-102027380D02*
X154399642Y-102027380D01*
X154113928Y-103027380D02*
X154113928Y-102027380D01*
X155304404Y-103027380D02*
X154971071Y-102551190D01*
X154732976Y-103027380D02*
X154732976Y-102027380D01*
X155113928Y-102027380D01*
X155209166Y-102075000D01*
X155256785Y-102122619D01*
X155304404Y-102217857D01*
X155304404Y-102360714D01*
X155256785Y-102455952D01*
X155209166Y-102503571D01*
X155113928Y-102551190D01*
X154732976Y-102551190D01*
X155685357Y-102741666D02*
X156161547Y-102741666D01*
X155590119Y-103027380D02*
X155923452Y-102027380D01*
X156256785Y-103027380D01*
X156590119Y-103027380D02*
X156590119Y-102027380D01*
X157161547Y-103027380D01*
X157161547Y-102027380D01*
X157590119Y-102979761D02*
X157732976Y-103027380D01*
X157971071Y-103027380D01*
X158066309Y-102979761D01*
X158113928Y-102932142D01*
X158161547Y-102836904D01*
X158161547Y-102741666D01*
X158113928Y-102646428D01*
X158066309Y-102598809D01*
X157971071Y-102551190D01*
X157780595Y-102503571D01*
X157685357Y-102455952D01*
X157637738Y-102408333D01*
X157590119Y-102313095D01*
X157590119Y-102217857D01*
X157637738Y-102122619D01*
X157685357Y-102075000D01*
X157780595Y-102027380D01*
X158018690Y-102027380D01*
X158161547Y-102075000D01*
X158590119Y-103027380D02*
X158590119Y-102027380D01*
X159018690Y-102979761D02*
X159161547Y-103027380D01*
X159399642Y-103027380D01*
X159494880Y-102979761D01*
X159542500Y-102932142D01*
X159590119Y-102836904D01*
X159590119Y-102741666D01*
X159542500Y-102646428D01*
X159494880Y-102598809D01*
X159399642Y-102551190D01*
X159209166Y-102503571D01*
X159113928Y-102455952D01*
X159066309Y-102408333D01*
X159018690Y-102313095D01*
X159018690Y-102217857D01*
X159066309Y-102122619D01*
X159113928Y-102075000D01*
X159209166Y-102027380D01*
X159447261Y-102027380D01*
X159590119Y-102075000D01*
X159875833Y-102027380D02*
X160447261Y-102027380D01*
X160161547Y-103027380D02*
X160161547Y-102027380D01*
X160971071Y-102027380D02*
X161161547Y-102027380D01*
X161256785Y-102075000D01*
X161352023Y-102170238D01*
X161399642Y-102360714D01*
X161399642Y-102694047D01*
X161352023Y-102884523D01*
X161256785Y-102979761D01*
X161161547Y-103027380D01*
X160971071Y-103027380D01*
X160875833Y-102979761D01*
X160780595Y-102884523D01*
X160732976Y-102694047D01*
X160732976Y-102360714D01*
X160780595Y-102170238D01*
X160875833Y-102075000D01*
X160971071Y-102027380D01*
X162399642Y-103027380D02*
X162066309Y-102551190D01*
X161828214Y-103027380D02*
X161828214Y-102027380D01*
X162209166Y-102027380D01*
X162304404Y-102075000D01*
X162352023Y-102122619D01*
X162399642Y-102217857D01*
X162399642Y-102360714D01*
X162352023Y-102455952D01*
X162304404Y-102503571D01*
X162209166Y-102551190D01*
X161828214Y-102551190D01*
X162780595Y-102979761D02*
X162923452Y-103027380D01*
X163161547Y-103027380D01*
X163256785Y-102979761D01*
X163304404Y-102932142D01*
X163352023Y-102836904D01*
X163352023Y-102741666D01*
X163304404Y-102646428D01*
X163256785Y-102598809D01*
X163161547Y-102551190D01*
X162971071Y-102503571D01*
X162875833Y-102455952D01*
X162828214Y-102408333D01*
X162780595Y-102313095D01*
X162780595Y-102217857D01*
X162828214Y-102122619D01*
X162875833Y-102075000D01*
X162971071Y-102027380D01*
X163209166Y-102027380D01*
X163352023Y-102075000D01*
X164447261Y-102027380D02*
X164685357Y-103027380D01*
X164875833Y-102313095D01*
X165066309Y-103027380D01*
X165304404Y-102027380D01*
X165685357Y-103027380D02*
X165685357Y-102027380D01*
X166637738Y-103027380D02*
X166161547Y-103027380D01*
X166161547Y-102027380D01*
X167447261Y-103027380D02*
X166971071Y-103027380D01*
X166971071Y-102027380D01*
X143113928Y-104637380D02*
X143113928Y-103637380D01*
X143447261Y-104351666D01*
X143780595Y-103637380D01*
X143780595Y-104637380D01*
X144209166Y-104351666D02*
X144685357Y-104351666D01*
X144113928Y-104637380D02*
X144447261Y-103637380D01*
X144780595Y-104637380D01*
X145113928Y-104637380D02*
X145113928Y-103637380D01*
X145685357Y-104637380D02*
X145256785Y-104065952D01*
X145685357Y-103637380D02*
X145113928Y-104208809D01*
X146113928Y-104113571D02*
X146447261Y-104113571D01*
X146590119Y-104637380D02*
X146113928Y-104637380D01*
X146113928Y-103637380D01*
X146590119Y-103637380D01*
X147732976Y-104351666D02*
X148209166Y-104351666D01*
X147637738Y-104637380D02*
X147971071Y-103637380D01*
X148304404Y-104637380D01*
X149352023Y-104589761D02*
X149494880Y-104637380D01*
X149732976Y-104637380D01*
X149828214Y-104589761D01*
X149875833Y-104542142D01*
X149923452Y-104446904D01*
X149923452Y-104351666D01*
X149875833Y-104256428D01*
X149828214Y-104208809D01*
X149732976Y-104161190D01*
X149542500Y-104113571D01*
X149447261Y-104065952D01*
X149399642Y-104018333D01*
X149352023Y-103923095D01*
X149352023Y-103827857D01*
X149399642Y-103732619D01*
X149447261Y-103685000D01*
X149542500Y-103637380D01*
X149780595Y-103637380D01*
X149923452Y-103685000D01*
X150352023Y-104637380D02*
X150352023Y-103637380D01*
X150685357Y-104351666D01*
X151018690Y-103637380D01*
X151018690Y-104637380D01*
X151685357Y-103637380D02*
X151875833Y-103637380D01*
X151971071Y-103685000D01*
X152066309Y-103780238D01*
X152113928Y-103970714D01*
X152113928Y-104304047D01*
X152066309Y-104494523D01*
X151971071Y-104589761D01*
X151875833Y-104637380D01*
X151685357Y-104637380D01*
X151590119Y-104589761D01*
X151494880Y-104494523D01*
X151447261Y-104304047D01*
X151447261Y-103970714D01*
X151494880Y-103780238D01*
X151590119Y-103685000D01*
X151685357Y-103637380D01*
X152542500Y-104637380D02*
X152542500Y-103637380D01*
X153113928Y-104637380D02*
X152685357Y-104065952D01*
X153113928Y-103637380D02*
X152542500Y-104208809D01*
X153542500Y-104113571D02*
X153875833Y-104113571D01*
X154018690Y-104637380D02*
X153542500Y-104637380D01*
X153542500Y-103637380D01*
X154018690Y-103637380D01*
X155161547Y-104351666D02*
X155637738Y-104351666D01*
X155066309Y-104637380D02*
X155399642Y-103637380D01*
X155732976Y-104637380D01*
X156066309Y-104637380D02*
X156066309Y-103637380D01*
X156637738Y-104637380D01*
X156637738Y-103637380D01*
X157113928Y-104637380D02*
X157113928Y-103637380D01*
X157352023Y-103637380D01*
X157494880Y-103685000D01*
X157590119Y-103780238D01*
X157637738Y-103875476D01*
X157685357Y-104065952D01*
X157685357Y-104208809D01*
X157637738Y-104399285D01*
X157590119Y-104494523D01*
X157494880Y-104589761D01*
X157352023Y-104637380D01*
X157113928Y-104637380D01*
X159399642Y-103685000D02*
X159304404Y-103637380D01*
X159161547Y-103637380D01*
X159018690Y-103685000D01*
X158923452Y-103780238D01*
X158875833Y-103875476D01*
X158828214Y-104065952D01*
X158828214Y-104208809D01*
X158875833Y-104399285D01*
X158923452Y-104494523D01*
X159018690Y-104589761D01*
X159161547Y-104637380D01*
X159256785Y-104637380D01*
X159399642Y-104589761D01*
X159447261Y-104542142D01*
X159447261Y-104208809D01*
X159256785Y-104208809D01*
X160066309Y-103637380D02*
X160256785Y-103637380D01*
X160352023Y-103685000D01*
X160447261Y-103780238D01*
X160494880Y-103970714D01*
X160494880Y-104304047D01*
X160447261Y-104494523D01*
X160352023Y-104589761D01*
X160256785Y-104637380D01*
X160066309Y-104637380D01*
X159971071Y-104589761D01*
X159875833Y-104494523D01*
X159828214Y-104304047D01*
X159828214Y-103970714D01*
X159875833Y-103780238D01*
X159971071Y-103685000D01*
X160066309Y-103637380D01*
X161685357Y-104637380D02*
X161685357Y-103637380D01*
X162256785Y-104637380D02*
X161828214Y-104065952D01*
X162256785Y-103637380D02*
X161685357Y-104208809D01*
X162637738Y-104351666D02*
X163113928Y-104351666D01*
X162542500Y-104637380D02*
X162875833Y-103637380D01*
X163209166Y-104637380D01*
X163875833Y-104113571D02*
X164018690Y-104161190D01*
X164066309Y-104208809D01*
X164113928Y-104304047D01*
X164113928Y-104446904D01*
X164066309Y-104542142D01*
X164018690Y-104589761D01*
X163923452Y-104637380D01*
X163542500Y-104637380D01*
X163542500Y-103637380D01*
X163875833Y-103637380D01*
X163971071Y-103685000D01*
X164018690Y-103732619D01*
X164066309Y-103827857D01*
X164066309Y-103923095D01*
X164018690Y-104018333D01*
X163971071Y-104065952D01*
X163875833Y-104113571D01*
X163542500Y-104113571D01*
X164732976Y-103637380D02*
X164923452Y-103637380D01*
X165018690Y-103685000D01*
X165113928Y-103780238D01*
X165161547Y-103970714D01*
X165161547Y-104304047D01*
X165113928Y-104494523D01*
X165018690Y-104589761D01*
X164923452Y-104637380D01*
X164732976Y-104637380D01*
X164637738Y-104589761D01*
X164542500Y-104494523D01*
X164494880Y-104304047D01*
X164494880Y-103970714D01*
X164542500Y-103780238D01*
X164637738Y-103685000D01*
X164732976Y-103637380D01*
X165780595Y-103637380D02*
X165971071Y-103637380D01*
X166066309Y-103685000D01*
X166161547Y-103780238D01*
X166209166Y-103970714D01*
X166209166Y-104304047D01*
X166161547Y-104494523D01*
X166066309Y-104589761D01*
X165971071Y-104637380D01*
X165780595Y-104637380D01*
X165685357Y-104589761D01*
X165590119Y-104494523D01*
X165542500Y-104304047D01*
X165542500Y-103970714D01*
X165590119Y-103780238D01*
X165685357Y-103685000D01*
X165780595Y-103637380D01*
X166637738Y-104637380D02*
X166637738Y-103637380D01*
X166971071Y-104351666D01*
X167304404Y-103637380D01*
X167304404Y-104637380D01*
X151130952Y-64857380D02*
X151130952Y-65666904D01*
X151178571Y-65762142D01*
X151226190Y-65809761D01*
X151321428Y-65857380D01*
X151511904Y-65857380D01*
X151607142Y-65809761D01*
X151654761Y-65762142D01*
X151702380Y-65666904D01*
X151702380Y-64857380D01*
X152130952Y-65809761D02*
X152273809Y-65857380D01*
X152511904Y-65857380D01*
X152607142Y-65809761D01*
X152654761Y-65762142D01*
X152702380Y-65666904D01*
X152702380Y-65571666D01*
X152654761Y-65476428D01*
X152607142Y-65428809D01*
X152511904Y-65381190D01*
X152321428Y-65333571D01*
X152226190Y-65285952D01*
X152178571Y-65238333D01*
X152130952Y-65143095D01*
X152130952Y-65047857D01*
X152178571Y-64952619D01*
X152226190Y-64905000D01*
X152321428Y-64857380D01*
X152559523Y-64857380D01*
X152702380Y-64905000D01*
X153464285Y-65333571D02*
X153607142Y-65381190D01*
X153654761Y-65428809D01*
X153702380Y-65524047D01*
X153702380Y-65666904D01*
X153654761Y-65762142D01*
X153607142Y-65809761D01*
X153511904Y-65857380D01*
X153130952Y-65857380D01*
X153130952Y-64857380D01*
X153464285Y-64857380D01*
X153559523Y-64905000D01*
X153607142Y-64952619D01*
X153654761Y-65047857D01*
X153654761Y-65143095D01*
X153607142Y-65238333D01*
X153559523Y-65285952D01*
X153464285Y-65333571D01*
X153130952Y-65333571D01*
X155369047Y-65857380D02*
X154892857Y-65857380D01*
X154892857Y-64857380D01*
X155702380Y-65857380D02*
X155702380Y-65190714D01*
X155702380Y-64857380D02*
X155654761Y-64905000D01*
X155702380Y-64952619D01*
X155750000Y-64905000D01*
X155702380Y-64857380D01*
X155702380Y-64952619D01*
X156607142Y-65190714D02*
X156607142Y-66000238D01*
X156559523Y-66095476D01*
X156511904Y-66143095D01*
X156416666Y-66190714D01*
X156273809Y-66190714D01*
X156178571Y-66143095D01*
X156607142Y-65809761D02*
X156511904Y-65857380D01*
X156321428Y-65857380D01*
X156226190Y-65809761D01*
X156178571Y-65762142D01*
X156130952Y-65666904D01*
X156130952Y-65381190D01*
X156178571Y-65285952D01*
X156226190Y-65238333D01*
X156321428Y-65190714D01*
X156511904Y-65190714D01*
X156607142Y-65238333D01*
X157083333Y-65857380D02*
X157083333Y-64857380D01*
X157511904Y-65857380D02*
X157511904Y-65333571D01*
X157464285Y-65238333D01*
X157369047Y-65190714D01*
X157226190Y-65190714D01*
X157130952Y-65238333D01*
X157083333Y-65285952D01*
X157845238Y-65190714D02*
X158226190Y-65190714D01*
X157988095Y-64857380D02*
X157988095Y-65714523D01*
X158035714Y-65809761D01*
X158130952Y-65857380D01*
X158226190Y-65857380D01*
X159273809Y-65809761D02*
X159416666Y-65857380D01*
X159654761Y-65857380D01*
X159750000Y-65809761D01*
X159797619Y-65762142D01*
X159845238Y-65666904D01*
X159845238Y-65571666D01*
X159797619Y-65476428D01*
X159750000Y-65428809D01*
X159654761Y-65381190D01*
X159464285Y-65333571D01*
X159369047Y-65285952D01*
X159321428Y-65238333D01*
X159273809Y-65143095D01*
X159273809Y-65047857D01*
X159321428Y-64952619D01*
X159369047Y-64905000D01*
X159464285Y-64857380D01*
X159702380Y-64857380D01*
X159845238Y-64905000D01*
X160654761Y-65809761D02*
X160559523Y-65857380D01*
X160369047Y-65857380D01*
X160273809Y-65809761D01*
X160226190Y-65714523D01*
X160226190Y-65333571D01*
X160273809Y-65238333D01*
X160369047Y-65190714D01*
X160559523Y-65190714D01*
X160654761Y-65238333D01*
X160702380Y-65333571D01*
X160702380Y-65428809D01*
X160226190Y-65524047D01*
X161130952Y-65190714D02*
X161130952Y-65857380D01*
X161130952Y-65285952D02*
X161178571Y-65238333D01*
X161273809Y-65190714D01*
X161416666Y-65190714D01*
X161511904Y-65238333D01*
X161559523Y-65333571D01*
X161559523Y-65857380D01*
X161988095Y-65809761D02*
X162083333Y-65857380D01*
X162273809Y-65857380D01*
X162369047Y-65809761D01*
X162416666Y-65714523D01*
X162416666Y-65666904D01*
X162369047Y-65571666D01*
X162273809Y-65524047D01*
X162130952Y-65524047D01*
X162035714Y-65476428D01*
X161988095Y-65381190D01*
X161988095Y-65333571D01*
X162035714Y-65238333D01*
X162130952Y-65190714D01*
X162273809Y-65190714D01*
X162369047Y-65238333D01*
X162988095Y-65857380D02*
X162892857Y-65809761D01*
X162845238Y-65762142D01*
X162797619Y-65666904D01*
X162797619Y-65381190D01*
X162845238Y-65285952D01*
X162892857Y-65238333D01*
X162988095Y-65190714D01*
X163130952Y-65190714D01*
X163226190Y-65238333D01*
X163273809Y-65285952D01*
X163321428Y-65381190D01*
X163321428Y-65666904D01*
X163273809Y-65762142D01*
X163226190Y-65809761D01*
X163130952Y-65857380D01*
X162988095Y-65857380D01*
X163750000Y-65857380D02*
X163750000Y-65190714D01*
X163750000Y-65381190D02*
X163797619Y-65285952D01*
X163845238Y-65238333D01*
X163940476Y-65190714D01*
X164035714Y-65190714D01*
X165035714Y-65190714D02*
X165273809Y-65857380D01*
X165511904Y-65190714D01*
X165845238Y-64952619D02*
X165892857Y-64905000D01*
X165988095Y-64857380D01*
X166226190Y-64857380D01*
X166321428Y-64905000D01*
X166369047Y-64952619D01*
X166416666Y-65047857D01*
X166416666Y-65143095D01*
X166369047Y-65285952D01*
X165797619Y-65857380D01*
X166416666Y-65857380D01*
X151551666Y-71370714D02*
X151742142Y-72037380D01*
X151932619Y-71561190D01*
X152123095Y-72037380D01*
X152313571Y-71370714D01*
X153123095Y-71370714D02*
X153123095Y-72037380D01*
X152694523Y-71370714D02*
X152694523Y-71894523D01*
X152742142Y-71989761D01*
X152837380Y-72037380D01*
X152980238Y-72037380D01*
X153075476Y-71989761D01*
X153123095Y-71942142D01*
X152742142Y-71037380D02*
X152789761Y-71085000D01*
X152742142Y-71132619D01*
X152694523Y-71085000D01*
X152742142Y-71037380D01*
X152742142Y-71132619D01*
X153123095Y-71037380D02*
X153170714Y-71085000D01*
X153123095Y-71132619D01*
X153075476Y-71085000D01*
X153123095Y-71037380D01*
X153123095Y-71132619D01*
X153599285Y-72037380D02*
X153599285Y-71370714D01*
X153599285Y-71561190D02*
X153646904Y-71465952D01*
X153694523Y-71418333D01*
X153789761Y-71370714D01*
X153885000Y-71370714D01*
X154075476Y-71370714D02*
X154456428Y-71370714D01*
X154218333Y-71037380D02*
X154218333Y-71894523D01*
X154265952Y-71989761D01*
X154361190Y-72037380D01*
X154456428Y-72037380D01*
X154789761Y-72037380D02*
X154789761Y-71037380D01*
X155218333Y-72037380D02*
X155218333Y-71513571D01*
X155170714Y-71418333D01*
X155075476Y-71370714D01*
X154932619Y-71370714D01*
X154837380Y-71418333D01*
X154789761Y-71465952D01*
X155837380Y-72037380D02*
X155742142Y-71989761D01*
X155694523Y-71894523D01*
X155694523Y-71037380D01*
X156599285Y-71989761D02*
X156504047Y-72037380D01*
X156313571Y-72037380D01*
X156218333Y-71989761D01*
X156170714Y-71894523D01*
X156170714Y-71513571D01*
X156218333Y-71418333D01*
X156313571Y-71370714D01*
X156504047Y-71370714D01*
X156599285Y-71418333D01*
X156646904Y-71513571D01*
X156646904Y-71608809D01*
X156170714Y-71704047D01*
X157027857Y-71989761D02*
X157123095Y-72037380D01*
X157313571Y-72037380D01*
X157408809Y-71989761D01*
X157456428Y-71894523D01*
X157456428Y-71846904D01*
X157408809Y-71751666D01*
X157313571Y-71704047D01*
X157170714Y-71704047D01*
X157075476Y-71656428D01*
X157027857Y-71561190D01*
X157027857Y-71513571D01*
X157075476Y-71418333D01*
X157170714Y-71370714D01*
X157313571Y-71370714D01*
X157408809Y-71418333D01*
X157837380Y-71989761D02*
X157932619Y-72037380D01*
X158123095Y-72037380D01*
X158218333Y-71989761D01*
X158265952Y-71894523D01*
X158265952Y-71846904D01*
X158218333Y-71751666D01*
X158123095Y-71704047D01*
X157980238Y-71704047D01*
X157885000Y-71656428D01*
X157837380Y-71561190D01*
X157837380Y-71513571D01*
X157885000Y-71418333D01*
X157980238Y-71370714D01*
X158123095Y-71370714D01*
X158218333Y-71418333D01*
X159837380Y-71989761D02*
X159742142Y-72037380D01*
X159551666Y-72037380D01*
X159456428Y-71989761D01*
X159408809Y-71894523D01*
X159408809Y-71513571D01*
X159456428Y-71418333D01*
X159551666Y-71370714D01*
X159742142Y-71370714D01*
X159837380Y-71418333D01*
X159885000Y-71513571D01*
X159885000Y-71608809D01*
X159408809Y-71704047D01*
X160456428Y-72037380D02*
X160361190Y-71989761D01*
X160313571Y-71894523D01*
X160313571Y-71037380D01*
X161218333Y-71989761D02*
X161123095Y-72037380D01*
X160932619Y-72037380D01*
X160837380Y-71989761D01*
X160789761Y-71894523D01*
X160789761Y-71513571D01*
X160837380Y-71418333D01*
X160932619Y-71370714D01*
X161123095Y-71370714D01*
X161218333Y-71418333D01*
X161265952Y-71513571D01*
X161265952Y-71608809D01*
X160789761Y-71704047D01*
X161694523Y-72037380D02*
X161694523Y-71037380D01*
X161789761Y-71656428D02*
X162075476Y-72037380D01*
X162075476Y-71370714D02*
X161694523Y-71751666D01*
X162361190Y-71370714D02*
X162742142Y-71370714D01*
X162504047Y-71037380D02*
X162504047Y-71894523D01*
X162551666Y-71989761D01*
X162646904Y-72037380D01*
X162742142Y-72037380D01*
X163075476Y-72037380D02*
X163075476Y-71370714D01*
X163075476Y-71561190D02*
X163123095Y-71465952D01*
X163170714Y-71418333D01*
X163265952Y-71370714D01*
X163361190Y-71370714D01*
X163837380Y-72037380D02*
X163742142Y-71989761D01*
X163694523Y-71942142D01*
X163646904Y-71846904D01*
X163646904Y-71561190D01*
X163694523Y-71465952D01*
X163742142Y-71418333D01*
X163837380Y-71370714D01*
X163980238Y-71370714D01*
X164075476Y-71418333D01*
X164123095Y-71465952D01*
X164170714Y-71561190D01*
X164170714Y-71846904D01*
X164123095Y-71942142D01*
X164075476Y-71989761D01*
X163980238Y-72037380D01*
X163837380Y-72037380D01*
X164599285Y-71370714D02*
X164599285Y-72037380D01*
X164599285Y-71465952D02*
X164646904Y-71418333D01*
X164742142Y-71370714D01*
X164885000Y-71370714D01*
X164980238Y-71418333D01*
X165027857Y-71513571D01*
X165027857Y-72037380D01*
X165504047Y-72037380D02*
X165504047Y-71370714D01*
X165504047Y-71037380D02*
X165456428Y-71085000D01*
X165504047Y-71132619D01*
X165551666Y-71085000D01*
X165504047Y-71037380D01*
X165504047Y-71132619D01*
X165980238Y-72037380D02*
X165980238Y-71037380D01*
X166075476Y-71656428D02*
X166361190Y-72037380D01*
X166361190Y-71370714D02*
X165980238Y-71751666D01*
X166742142Y-71989761D02*
X166837380Y-72037380D01*
X167027857Y-72037380D01*
X167123095Y-71989761D01*
X167170714Y-71894523D01*
X167170714Y-71846904D01*
X167123095Y-71751666D01*
X167027857Y-71704047D01*
X166885000Y-71704047D01*
X166789761Y-71656428D01*
X166742142Y-71561190D01*
X166742142Y-71513571D01*
X166789761Y-71418333D01*
X166885000Y-71370714D01*
X167027857Y-71370714D01*
X167123095Y-71418333D01*
X149194523Y-74028333D02*
X149146904Y-73980714D01*
X149051666Y-73837857D01*
X149004047Y-73742619D01*
X148956428Y-73599761D01*
X148908809Y-73361666D01*
X148908809Y-73171190D01*
X148956428Y-72933095D01*
X149004047Y-72790238D01*
X149051666Y-72695000D01*
X149146904Y-72552142D01*
X149194523Y-72504523D01*
X149480238Y-72980714D02*
X149670714Y-73647380D01*
X149861190Y-73171190D01*
X150051666Y-73647380D01*
X150242142Y-72980714D01*
X150623095Y-73647380D02*
X150623095Y-72647380D01*
X151051666Y-73647380D02*
X151051666Y-73123571D01*
X151004047Y-73028333D01*
X150908809Y-72980714D01*
X150765952Y-72980714D01*
X150670714Y-73028333D01*
X150623095Y-73075952D01*
X151956428Y-73647380D02*
X151956428Y-73123571D01*
X151908809Y-73028333D01*
X151813571Y-72980714D01*
X151623095Y-72980714D01*
X151527857Y-73028333D01*
X151956428Y-73599761D02*
X151861190Y-73647380D01*
X151623095Y-73647380D01*
X151527857Y-73599761D01*
X151480238Y-73504523D01*
X151480238Y-73409285D01*
X151527857Y-73314047D01*
X151623095Y-73266428D01*
X151861190Y-73266428D01*
X151956428Y-73218809D01*
X152289761Y-72980714D02*
X152670714Y-72980714D01*
X152432619Y-72647380D02*
X152432619Y-73504523D01*
X152480238Y-73599761D01*
X152575476Y-73647380D01*
X152670714Y-73647380D01*
X154146904Y-73599761D02*
X154051666Y-73647380D01*
X153861190Y-73647380D01*
X153765952Y-73599761D01*
X153718333Y-73504523D01*
X153718333Y-73123571D01*
X153765952Y-73028333D01*
X153861190Y-72980714D01*
X154051666Y-72980714D01*
X154146904Y-73028333D01*
X154194523Y-73123571D01*
X154194523Y-73218809D01*
X153718333Y-73314047D01*
X154765952Y-73647380D02*
X154670714Y-73599761D01*
X154623095Y-73504523D01*
X154623095Y-72647380D01*
X155099285Y-73599761D02*
X155194523Y-73647380D01*
X155384999Y-73647380D01*
X155480238Y-73599761D01*
X155527857Y-73504523D01*
X155527857Y-73456904D01*
X155480238Y-73361666D01*
X155384999Y-73314047D01*
X155242142Y-73314047D01*
X155146904Y-73266428D01*
X155099285Y-73171190D01*
X155099285Y-73123571D01*
X155146904Y-73028333D01*
X155242142Y-72980714D01*
X155384999Y-72980714D01*
X155480238Y-73028333D01*
X156337380Y-73599761D02*
X156242142Y-73647380D01*
X156051666Y-73647380D01*
X155956428Y-73599761D01*
X155908809Y-73504523D01*
X155908809Y-73123571D01*
X155956428Y-73028333D01*
X156051666Y-72980714D01*
X156242142Y-72980714D01*
X156337380Y-73028333D01*
X156384999Y-73123571D01*
X156384999Y-73218809D01*
X155908809Y-73314047D01*
X158004047Y-73647380D02*
X158004047Y-72647380D01*
X158004047Y-73599761D02*
X157908809Y-73647380D01*
X157718333Y-73647380D01*
X157623095Y-73599761D01*
X157575476Y-73552142D01*
X157527857Y-73456904D01*
X157527857Y-73171190D01*
X157575476Y-73075952D01*
X157623095Y-73028333D01*
X157718333Y-72980714D01*
X157908809Y-72980714D01*
X158004047Y-73028333D01*
X158480238Y-73647380D02*
X158480238Y-72980714D01*
X158480238Y-72647380D02*
X158432619Y-72695000D01*
X158480238Y-72742619D01*
X158527857Y-72695000D01*
X158480238Y-72647380D01*
X158480238Y-72742619D01*
X159384999Y-73647380D02*
X159384999Y-72647380D01*
X159384999Y-73599761D02*
X159289761Y-73647380D01*
X159099285Y-73647380D01*
X159004047Y-73599761D01*
X158956428Y-73552142D01*
X158908809Y-73456904D01*
X158908809Y-73171190D01*
X158956428Y-73075952D01*
X159004047Y-73028333D01*
X159099285Y-72980714D01*
X159289761Y-72980714D01*
X159384999Y-73028333D01*
X160527857Y-72980714D02*
X160765952Y-73647380D01*
X161004047Y-72980714D02*
X160765952Y-73647380D01*
X160670714Y-73885476D01*
X160623095Y-73933095D01*
X160527857Y-73980714D01*
X161527857Y-73647380D02*
X161432619Y-73599761D01*
X161384999Y-73552142D01*
X161337380Y-73456904D01*
X161337380Y-73171190D01*
X161384999Y-73075952D01*
X161432619Y-73028333D01*
X161527857Y-72980714D01*
X161670714Y-72980714D01*
X161765952Y-73028333D01*
X161813571Y-73075952D01*
X161861190Y-73171190D01*
X161861190Y-73456904D01*
X161813571Y-73552142D01*
X161765952Y-73599761D01*
X161670714Y-73647380D01*
X161527857Y-73647380D01*
X162718333Y-72980714D02*
X162718333Y-73647380D01*
X162289761Y-72980714D02*
X162289761Y-73504523D01*
X162337380Y-73599761D01*
X162432619Y-73647380D01*
X162575476Y-73647380D01*
X162670714Y-73599761D01*
X162718333Y-73552142D01*
X164337380Y-73599761D02*
X164242142Y-73647380D01*
X164051666Y-73647380D01*
X163956428Y-73599761D01*
X163908809Y-73504523D01*
X163908809Y-73123571D01*
X163956428Y-73028333D01*
X164051666Y-72980714D01*
X164242142Y-72980714D01*
X164337380Y-73028333D01*
X164384999Y-73123571D01*
X164384999Y-73218809D01*
X163908809Y-73314047D01*
X164718333Y-73647380D02*
X165242142Y-72980714D01*
X164718333Y-72980714D02*
X165242142Y-73647380D01*
X165623095Y-72980714D02*
X165623095Y-73980714D01*
X165623095Y-73028333D02*
X165718333Y-72980714D01*
X165908809Y-72980714D01*
X166004047Y-73028333D01*
X166051666Y-73075952D01*
X166099285Y-73171190D01*
X166099285Y-73456904D01*
X166051666Y-73552142D01*
X166004047Y-73599761D01*
X165908809Y-73647380D01*
X165718333Y-73647380D01*
X165623095Y-73599761D01*
X166908809Y-73599761D02*
X166813571Y-73647380D01*
X166623095Y-73647380D01*
X166527857Y-73599761D01*
X166480238Y-73504523D01*
X166480238Y-73123571D01*
X166527857Y-73028333D01*
X166623095Y-72980714D01*
X166813571Y-72980714D01*
X166908809Y-73028333D01*
X166956428Y-73123571D01*
X166956428Y-73218809D01*
X166480238Y-73314047D01*
X167813571Y-73599761D02*
X167718333Y-73647380D01*
X167527857Y-73647380D01*
X167432619Y-73599761D01*
X167384999Y-73552142D01*
X167337380Y-73456904D01*
X167337380Y-73171190D01*
X167384999Y-73075952D01*
X167432619Y-73028333D01*
X167527857Y-72980714D01*
X167718333Y-72980714D01*
X167813571Y-73028333D01*
X168099285Y-72980714D02*
X168480238Y-72980714D01*
X168242142Y-72647380D02*
X168242142Y-73504523D01*
X168289761Y-73599761D01*
X168384999Y-73647380D01*
X168480238Y-73647380D01*
X168956428Y-73552142D02*
X169004047Y-73599761D01*
X168956428Y-73647380D01*
X168908809Y-73599761D01*
X168956428Y-73552142D01*
X168956428Y-73647380D01*
X168765952Y-72695000D02*
X168861190Y-72647380D01*
X169099285Y-72647380D01*
X169194523Y-72695000D01*
X169242142Y-72790238D01*
X169242142Y-72885476D01*
X169194523Y-72980714D01*
X169146904Y-73028333D01*
X169051666Y-73075952D01*
X169004047Y-73123571D01*
X168956428Y-73218809D01*
X168956428Y-73266428D01*
X169575476Y-74028333D02*
X169623095Y-73980714D01*
X169718333Y-73837857D01*
X169765952Y-73742619D01*
X169813571Y-73599761D01*
X169861190Y-73361666D01*
X169861190Y-73171190D01*
X169813571Y-72933095D01*
X169765952Y-72790238D01*
X169718333Y-72695000D01*
X169623095Y-72552142D01*
X169575476Y-72504523D01*
X98593095Y-66762380D02*
X99164523Y-66762380D01*
X98878809Y-67762380D02*
X98878809Y-66762380D01*
X99497857Y-67762380D02*
X99497857Y-66762380D01*
X99497857Y-67238571D02*
X100069285Y-67238571D01*
X100069285Y-67762380D02*
X100069285Y-66762380D01*
X100545476Y-67762380D02*
X100545476Y-66762380D01*
X100974047Y-67714761D02*
X101116904Y-67762380D01*
X101354999Y-67762380D01*
X101450238Y-67714761D01*
X101497857Y-67667142D01*
X101545476Y-67571904D01*
X101545476Y-67476666D01*
X101497857Y-67381428D01*
X101450238Y-67333809D01*
X101354999Y-67286190D01*
X101164523Y-67238571D01*
X101069285Y-67190952D01*
X101021666Y-67143333D01*
X100974047Y-67048095D01*
X100974047Y-66952857D01*
X101021666Y-66857619D01*
X101069285Y-66810000D01*
X101164523Y-66762380D01*
X101402619Y-66762380D01*
X101545476Y-66810000D01*
X102688333Y-67714761D02*
X102831190Y-67762380D01*
X103069285Y-67762380D01*
X103164523Y-67714761D01*
X103212142Y-67667142D01*
X103259761Y-67571904D01*
X103259761Y-67476666D01*
X103212142Y-67381428D01*
X103164523Y-67333809D01*
X103069285Y-67286190D01*
X102878809Y-67238571D01*
X102783571Y-67190952D01*
X102735952Y-67143333D01*
X102688333Y-67048095D01*
X102688333Y-66952857D01*
X102735952Y-66857619D01*
X102783571Y-66810000D01*
X102878809Y-66762380D01*
X103116904Y-66762380D01*
X103259761Y-66810000D01*
X103688333Y-67762380D02*
X103688333Y-66762380D01*
X104164523Y-67762380D02*
X104164523Y-66762380D01*
X104402619Y-66762380D01*
X104545476Y-66810000D01*
X104640714Y-66905238D01*
X104688333Y-67000476D01*
X104735952Y-67190952D01*
X104735952Y-67333809D01*
X104688333Y-67524285D01*
X104640714Y-67619523D01*
X104545476Y-67714761D01*
X104402619Y-67762380D01*
X104164523Y-67762380D01*
X105164523Y-67238571D02*
X105497857Y-67238571D01*
X105640714Y-67762380D02*
X105164523Y-67762380D01*
X105164523Y-66762380D01*
X105640714Y-66762380D01*
X106783571Y-67476666D02*
X107259761Y-67476666D01*
X106688333Y-67762380D02*
X107021666Y-66762380D01*
X107354999Y-67762380D01*
X108259761Y-67667142D02*
X108212142Y-67714761D01*
X108069285Y-67762380D01*
X107974047Y-67762380D01*
X107831190Y-67714761D01*
X107735952Y-67619523D01*
X107688333Y-67524285D01*
X107640714Y-67333809D01*
X107640714Y-67190952D01*
X107688333Y-67000476D01*
X107735952Y-66905238D01*
X107831190Y-66810000D01*
X107974047Y-66762380D01*
X108069285Y-66762380D01*
X108212142Y-66810000D01*
X108259761Y-66857619D01*
X108545476Y-66762380D02*
X109116904Y-66762380D01*
X108831190Y-67762380D02*
X108831190Y-66762380D01*
X109450238Y-67762380D02*
X109450238Y-66762380D01*
X109783571Y-66762380D02*
X110116904Y-67762380D01*
X110450238Y-66762380D01*
X110783571Y-67238571D02*
X111116904Y-67238571D01*
X111259761Y-67762380D02*
X110783571Y-67762380D01*
X110783571Y-66762380D01*
X111259761Y-66762380D01*
X112354999Y-66762380D02*
X112593095Y-67762380D01*
X112783571Y-67048095D01*
X112974047Y-67762380D01*
X113212142Y-66762380D01*
X113593095Y-67762380D02*
X113593095Y-66762380D01*
X113593095Y-67238571D02*
X114164523Y-67238571D01*
X114164523Y-67762380D02*
X114164523Y-66762380D01*
X114640714Y-67238571D02*
X114974047Y-67238571D01*
X115116904Y-67762380D02*
X114640714Y-67762380D01*
X114640714Y-66762380D01*
X115116904Y-66762380D01*
X115545476Y-67762380D02*
X115545476Y-66762380D01*
X116116904Y-67762380D01*
X116116904Y-66762380D01*
X117831190Y-67762380D02*
X117354999Y-67762380D01*
X117354999Y-66762380D01*
X118164523Y-67762380D02*
X118164523Y-66762380D01*
X119164523Y-66810000D02*
X119069285Y-66762380D01*
X118926428Y-66762380D01*
X118783571Y-66810000D01*
X118688333Y-66905238D01*
X118640714Y-67000476D01*
X118593095Y-67190952D01*
X118593095Y-67333809D01*
X118640714Y-67524285D01*
X118688333Y-67619523D01*
X118783571Y-67714761D01*
X118926428Y-67762380D01*
X119021666Y-67762380D01*
X119164523Y-67714761D01*
X119212142Y-67667142D01*
X119212142Y-67333809D01*
X119021666Y-67333809D01*
X119640714Y-67762380D02*
X119640714Y-66762380D01*
X119640714Y-67238571D02*
X120212142Y-67238571D01*
X120212142Y-67762380D02*
X120212142Y-66762380D01*
X120545476Y-66762380D02*
X121116904Y-66762380D01*
X120831190Y-67762380D02*
X120831190Y-66762380D01*
X99982142Y-102322380D02*
X100553571Y-102322380D01*
X100267857Y-103322380D02*
X100267857Y-102322380D01*
X100886904Y-103322380D02*
X100886904Y-102322380D01*
X100886904Y-102798571D02*
X101458333Y-102798571D01*
X101458333Y-103322380D02*
X101458333Y-102322380D01*
X101934523Y-103322380D02*
X101934523Y-102322380D01*
X102363095Y-103274761D02*
X102505952Y-103322380D01*
X102744047Y-103322380D01*
X102839285Y-103274761D01*
X102886904Y-103227142D01*
X102934523Y-103131904D01*
X102934523Y-103036666D01*
X102886904Y-102941428D01*
X102839285Y-102893809D01*
X102744047Y-102846190D01*
X102553571Y-102798571D01*
X102458333Y-102750952D01*
X102410714Y-102703333D01*
X102363095Y-102608095D01*
X102363095Y-102512857D01*
X102410714Y-102417619D01*
X102458333Y-102370000D01*
X102553571Y-102322380D01*
X102791666Y-102322380D01*
X102934523Y-102370000D01*
X104077380Y-103274761D02*
X104220238Y-103322380D01*
X104458333Y-103322380D01*
X104553571Y-103274761D01*
X104601190Y-103227142D01*
X104648809Y-103131904D01*
X104648809Y-103036666D01*
X104601190Y-102941428D01*
X104553571Y-102893809D01*
X104458333Y-102846190D01*
X104267857Y-102798571D01*
X104172619Y-102750952D01*
X104125000Y-102703333D01*
X104077380Y-102608095D01*
X104077380Y-102512857D01*
X104125000Y-102417619D01*
X104172619Y-102370000D01*
X104267857Y-102322380D01*
X104505952Y-102322380D01*
X104648809Y-102370000D01*
X105077380Y-103322380D02*
X105077380Y-102322380D01*
X105553571Y-103322380D02*
X105553571Y-102322380D01*
X105791666Y-102322380D01*
X105934523Y-102370000D01*
X106029761Y-102465238D01*
X106077380Y-102560476D01*
X106125000Y-102750952D01*
X106125000Y-102893809D01*
X106077380Y-103084285D01*
X106029761Y-103179523D01*
X105934523Y-103274761D01*
X105791666Y-103322380D01*
X105553571Y-103322380D01*
X106553571Y-102798571D02*
X106886904Y-102798571D01*
X107029761Y-103322380D02*
X106553571Y-103322380D01*
X106553571Y-102322380D01*
X107029761Y-102322380D01*
X108172619Y-103036666D02*
X108648809Y-103036666D01*
X108077380Y-103322380D02*
X108410714Y-102322380D01*
X108744047Y-103322380D01*
X109648809Y-103227142D02*
X109601190Y-103274761D01*
X109458333Y-103322380D01*
X109363095Y-103322380D01*
X109220238Y-103274761D01*
X109125000Y-103179523D01*
X109077380Y-103084285D01*
X109029761Y-102893809D01*
X109029761Y-102750952D01*
X109077380Y-102560476D01*
X109125000Y-102465238D01*
X109220238Y-102370000D01*
X109363095Y-102322380D01*
X109458333Y-102322380D01*
X109601190Y-102370000D01*
X109648809Y-102417619D01*
X109934523Y-102322380D02*
X110505952Y-102322380D01*
X110220238Y-103322380D02*
X110220238Y-102322380D01*
X110839285Y-103322380D02*
X110839285Y-102322380D01*
X111172619Y-102322380D02*
X111505952Y-103322380D01*
X111839285Y-102322380D01*
X112172619Y-102798571D02*
X112505952Y-102798571D01*
X112648809Y-103322380D02*
X112172619Y-103322380D01*
X112172619Y-102322380D01*
X112648809Y-102322380D01*
X113744047Y-102322380D02*
X113982142Y-103322380D01*
X114172619Y-102608095D01*
X114363095Y-103322380D01*
X114601190Y-102322380D01*
X114982142Y-103322380D02*
X114982142Y-102322380D01*
X114982142Y-102798571D02*
X115553571Y-102798571D01*
X115553571Y-103322380D02*
X115553571Y-102322380D01*
X116029761Y-102798571D02*
X116363095Y-102798571D01*
X116505952Y-103322380D02*
X116029761Y-103322380D01*
X116029761Y-102322380D01*
X116505952Y-102322380D01*
X116934523Y-103322380D02*
X116934523Y-102322380D01*
X117505952Y-103322380D01*
X117505952Y-102322380D01*
X118744047Y-103322380D02*
X118744047Y-102322380D01*
X118982142Y-102322380D01*
X119125000Y-102370000D01*
X119220238Y-102465238D01*
X119267857Y-102560476D01*
X119315476Y-102750952D01*
X119315476Y-102893809D01*
X119267857Y-103084285D01*
X119220238Y-103179523D01*
X119125000Y-103274761D01*
X118982142Y-103322380D01*
X118744047Y-103322380D01*
X119696428Y-103036666D02*
X120172619Y-103036666D01*
X119601190Y-103322380D02*
X119934523Y-102322380D01*
X120267857Y-103322380D01*
X121172619Y-103322380D02*
X120839285Y-102846190D01*
X120601190Y-103322380D02*
X120601190Y-102322380D01*
X120982142Y-102322380D01*
X121077380Y-102370000D01*
X121125000Y-102417619D01*
X121172619Y-102512857D01*
X121172619Y-102655714D01*
X121125000Y-102750952D01*
X121077380Y-102798571D01*
X120982142Y-102846190D01*
X120601190Y-102846190D01*
X121601190Y-103322380D02*
X121601190Y-102322380D01*
X122172619Y-103322380D02*
X121744047Y-102750952D01*
X122172619Y-102322380D02*
X121601190Y-102893809D01*
%TO.C,R5*%
X108743333Y-81097380D02*
X108410000Y-80621190D01*
X108171904Y-81097380D02*
X108171904Y-80097380D01*
X108552857Y-80097380D01*
X108648095Y-80145000D01*
X108695714Y-80192619D01*
X108743333Y-80287857D01*
X108743333Y-80430714D01*
X108695714Y-80525952D01*
X108648095Y-80573571D01*
X108552857Y-80621190D01*
X108171904Y-80621190D01*
X109648095Y-80097380D02*
X109171904Y-80097380D01*
X109124285Y-80573571D01*
X109171904Y-80525952D01*
X109267142Y-80478333D01*
X109505238Y-80478333D01*
X109600476Y-80525952D01*
X109648095Y-80573571D01*
X109695714Y-80668809D01*
X109695714Y-80906904D01*
X109648095Y-81002142D01*
X109600476Y-81049761D01*
X109505238Y-81097380D01*
X109267142Y-81097380D01*
X109171904Y-81049761D01*
X109124285Y-81002142D01*
%TO.C,U1*%
X126873095Y-73957380D02*
X126873095Y-74766904D01*
X126920714Y-74862142D01*
X126968333Y-74909761D01*
X127063571Y-74957380D01*
X127254047Y-74957380D01*
X127349285Y-74909761D01*
X127396904Y-74862142D01*
X127444523Y-74766904D01*
X127444523Y-73957380D01*
X128444523Y-74957380D02*
X127873095Y-74957380D01*
X128158809Y-74957380D02*
X128158809Y-73957380D01*
X128063571Y-74100238D01*
X127968333Y-74195476D01*
X127873095Y-74243095D01*
%TO.C,Q2*%
X114839761Y-77207619D02*
X114744523Y-77160000D01*
X114649285Y-77064761D01*
X114506428Y-76921904D01*
X114411190Y-76874285D01*
X114315952Y-76874285D01*
X114363571Y-77112380D02*
X114268333Y-77064761D01*
X114173095Y-76969523D01*
X114125476Y-76779047D01*
X114125476Y-76445714D01*
X114173095Y-76255238D01*
X114268333Y-76160000D01*
X114363571Y-76112380D01*
X114554047Y-76112380D01*
X114649285Y-76160000D01*
X114744523Y-76255238D01*
X114792142Y-76445714D01*
X114792142Y-76779047D01*
X114744523Y-76969523D01*
X114649285Y-77064761D01*
X114554047Y-77112380D01*
X114363571Y-77112380D01*
X115173095Y-76207619D02*
X115220714Y-76160000D01*
X115315952Y-76112380D01*
X115554047Y-76112380D01*
X115649285Y-76160000D01*
X115696904Y-76207619D01*
X115744523Y-76302857D01*
X115744523Y-76398095D01*
X115696904Y-76540952D01*
X115125476Y-77112380D01*
X115744523Y-77112380D01*
%TO.C,C1*%
X140117142Y-99246666D02*
X140164761Y-99294285D01*
X140212380Y-99437142D01*
X140212380Y-99532380D01*
X140164761Y-99675238D01*
X140069523Y-99770476D01*
X139974285Y-99818095D01*
X139783809Y-99865714D01*
X139640952Y-99865714D01*
X139450476Y-99818095D01*
X139355238Y-99770476D01*
X139260000Y-99675238D01*
X139212380Y-99532380D01*
X139212380Y-99437142D01*
X139260000Y-99294285D01*
X139307619Y-99246666D01*
X140212380Y-98294285D02*
X140212380Y-98865714D01*
X140212380Y-98580000D02*
X139212380Y-98580000D01*
X139355238Y-98675238D01*
X139450476Y-98770476D01*
X139498095Y-98865714D01*
%TO.C,J1*%
X161669166Y-75642380D02*
X161669166Y-76356666D01*
X161621547Y-76499523D01*
X161526309Y-76594761D01*
X161383452Y-76642380D01*
X161288214Y-76642380D01*
X162669166Y-76642380D02*
X162097738Y-76642380D01*
X162383452Y-76642380D02*
X162383452Y-75642380D01*
X162288214Y-75785238D01*
X162192976Y-75880476D01*
X162097738Y-75928095D01*
%TO.C,R2*%
X151647380Y-80551666D02*
X151171190Y-80885000D01*
X151647380Y-81123095D02*
X150647380Y-81123095D01*
X150647380Y-80742142D01*
X150695000Y-80646904D01*
X150742619Y-80599285D01*
X150837857Y-80551666D01*
X150980714Y-80551666D01*
X151075952Y-80599285D01*
X151123571Y-80646904D01*
X151171190Y-80742142D01*
X151171190Y-81123095D01*
X150742619Y-80170714D02*
X150695000Y-80123095D01*
X150647380Y-80027857D01*
X150647380Y-79789761D01*
X150695000Y-79694523D01*
X150742619Y-79646904D01*
X150837857Y-79599285D01*
X150933095Y-79599285D01*
X151075952Y-79646904D01*
X151647380Y-80218333D01*
X151647380Y-79599285D01*
%TO.C,R1*%
X131278333Y-66932380D02*
X130945000Y-66456190D01*
X130706904Y-66932380D02*
X130706904Y-65932380D01*
X131087857Y-65932380D01*
X131183095Y-65980000D01*
X131230714Y-66027619D01*
X131278333Y-66122857D01*
X131278333Y-66265714D01*
X131230714Y-66360952D01*
X131183095Y-66408571D01*
X131087857Y-66456190D01*
X130706904Y-66456190D01*
X132230714Y-66932380D02*
X131659285Y-66932380D01*
X131945000Y-66932380D02*
X131945000Y-65932380D01*
X131849761Y-66075238D01*
X131754523Y-66170476D01*
X131659285Y-66218095D01*
%TO.C,D1*%
X108242380Y-94718095D02*
X107242380Y-94718095D01*
X107242380Y-94480000D01*
X107290000Y-94337142D01*
X107385238Y-94241904D01*
X107480476Y-94194285D01*
X107670952Y-94146666D01*
X107813809Y-94146666D01*
X108004285Y-94194285D01*
X108099523Y-94241904D01*
X108194761Y-94337142D01*
X108242380Y-94480000D01*
X108242380Y-94718095D01*
X108242380Y-93194285D02*
X108242380Y-93765714D01*
X108242380Y-93480000D02*
X107242380Y-93480000D01*
X107385238Y-93575238D01*
X107480476Y-93670476D01*
X107528095Y-93765714D01*
%TO.C,R3*%
X108743333Y-86812380D02*
X108410000Y-86336190D01*
X108171904Y-86812380D02*
X108171904Y-85812380D01*
X108552857Y-85812380D01*
X108648095Y-85860000D01*
X108695714Y-85907619D01*
X108743333Y-86002857D01*
X108743333Y-86145714D01*
X108695714Y-86240952D01*
X108648095Y-86288571D01*
X108552857Y-86336190D01*
X108171904Y-86336190D01*
X109076666Y-85812380D02*
X109695714Y-85812380D01*
X109362380Y-86193333D01*
X109505238Y-86193333D01*
X109600476Y-86240952D01*
X109648095Y-86288571D01*
X109695714Y-86383809D01*
X109695714Y-86621904D01*
X109648095Y-86717142D01*
X109600476Y-86764761D01*
X109505238Y-86812380D01*
X109219523Y-86812380D01*
X109124285Y-86764761D01*
X109076666Y-86717142D01*
%TO.C,J2*%
X96962380Y-93678333D02*
X97676666Y-93678333D01*
X97819523Y-93725952D01*
X97914761Y-93821190D01*
X97962380Y-93964047D01*
X97962380Y-94059285D01*
X97057619Y-93249761D02*
X97010000Y-93202142D01*
X96962380Y-93106904D01*
X96962380Y-92868809D01*
X97010000Y-92773571D01*
X97057619Y-92725952D01*
X97152857Y-92678333D01*
X97248095Y-92678333D01*
X97390952Y-92725952D01*
X97962380Y-93297380D01*
X97962380Y-92678333D01*
%TO.C,Q1*%
X114839761Y-98487619D02*
X114744523Y-98440000D01*
X114649285Y-98344761D01*
X114506428Y-98201904D01*
X114411190Y-98154285D01*
X114315952Y-98154285D01*
X114363571Y-98392380D02*
X114268333Y-98344761D01*
X114173095Y-98249523D01*
X114125476Y-98059047D01*
X114125476Y-97725714D01*
X114173095Y-97535238D01*
X114268333Y-97440000D01*
X114363571Y-97392380D01*
X114554047Y-97392380D01*
X114649285Y-97440000D01*
X114744523Y-97535238D01*
X114792142Y-97725714D01*
X114792142Y-98059047D01*
X114744523Y-98249523D01*
X114649285Y-98344761D01*
X114554047Y-98392380D01*
X114363571Y-98392380D01*
X115744523Y-98392380D02*
X115173095Y-98392380D01*
X115458809Y-98392380D02*
X115458809Y-97392380D01*
X115363571Y-97535238D01*
X115268333Y-97630476D01*
X115173095Y-97678095D01*
%TO.C,D2*%
X99997380Y-74398095D02*
X98997380Y-74398095D01*
X98997380Y-74160000D01*
X99045000Y-74017142D01*
X99140238Y-73921904D01*
X99235476Y-73874285D01*
X99425952Y-73826666D01*
X99568809Y-73826666D01*
X99759285Y-73874285D01*
X99854523Y-73921904D01*
X99949761Y-74017142D01*
X99997380Y-74160000D01*
X99997380Y-74398095D01*
X99092619Y-73445714D02*
X99045000Y-73398095D01*
X98997380Y-73302857D01*
X98997380Y-73064761D01*
X99045000Y-72969523D01*
X99092619Y-72921904D01*
X99187857Y-72874285D01*
X99283095Y-72874285D01*
X99425952Y-72921904D01*
X99997380Y-73493333D01*
X99997380Y-72874285D01*
%TO.C,RV1*%
X129592380Y-93925238D02*
X129116190Y-94258571D01*
X129592380Y-94496666D02*
X128592380Y-94496666D01*
X128592380Y-94115714D01*
X128640000Y-94020476D01*
X128687619Y-93972857D01*
X128782857Y-93925238D01*
X128925714Y-93925238D01*
X129020952Y-93972857D01*
X129068571Y-94020476D01*
X129116190Y-94115714D01*
X129116190Y-94496666D01*
X128592380Y-93639523D02*
X129592380Y-93306190D01*
X128592380Y-92972857D01*
X129592380Y-92115714D02*
X129592380Y-92687142D01*
X129592380Y-92401428D02*
X128592380Y-92401428D01*
X128735238Y-92496666D01*
X128830476Y-92591904D01*
X128878095Y-92687142D01*
%TO.C,R4*%
X143343333Y-95262380D02*
X143010000Y-94786190D01*
X142771904Y-95262380D02*
X142771904Y-94262380D01*
X143152857Y-94262380D01*
X143248095Y-94310000D01*
X143295714Y-94357619D01*
X143343333Y-94452857D01*
X143343333Y-94595714D01*
X143295714Y-94690952D01*
X143248095Y-94738571D01*
X143152857Y-94786190D01*
X142771904Y-94786190D01*
X144200476Y-94595714D02*
X144200476Y-95262380D01*
X143962380Y-94214761D02*
X143724285Y-94929047D01*
X144343333Y-94929047D01*
%TO.C,J3*%
X96962380Y-75898333D02*
X97676666Y-75898333D01*
X97819523Y-75945952D01*
X97914761Y-76041190D01*
X97962380Y-76184047D01*
X97962380Y-76279285D01*
X96962380Y-75517380D02*
X96962380Y-74898333D01*
X97343333Y-75231666D01*
X97343333Y-75088809D01*
X97390952Y-74993571D01*
X97438571Y-74945952D01*
X97533809Y-74898333D01*
X97771904Y-74898333D01*
X97867142Y-74945952D01*
X97914761Y-74993571D01*
X97962380Y-75088809D01*
X97962380Y-75374523D01*
X97914761Y-75469761D01*
X97867142Y-75517380D01*
D11*
%TO.C,R5*%
X114980000Y-83015000D02*
X114980000Y-78275000D01*
X102840000Y-78275000D02*
X102840000Y-83015000D01*
X102730000Y-80645000D02*
X102840000Y-80645000D01*
X114980000Y-78275000D02*
X102840000Y-78275000D01*
X102840000Y-83015000D02*
X114980000Y-83015000D01*
X115090000Y-80645000D02*
X114980000Y-80645000D01*
%TO.C,U1*%
X124985000Y-75505000D02*
X124985000Y-85785000D01*
X130285000Y-85785000D02*
X130285000Y-75505000D01*
X126635000Y-75505000D02*
X124985000Y-75505000D01*
X130285000Y-75505000D02*
X128635000Y-75505000D01*
X124985000Y-85785000D02*
X130285000Y-85785000D01*
X126635000Y-75505000D02*
G75*
G03*
X128635000Y-75505000I1000000J0D01*
G01*
%TO.C,Q2*%
X120055000Y-75660000D02*
X120055000Y-71019000D01*
X120055000Y-74150000D02*
X109815000Y-74150000D01*
X120055000Y-71019000D02*
X109815000Y-71019000D01*
X109815000Y-75660000D02*
X109815000Y-71019000D01*
X113084000Y-75660000D02*
X113084000Y-74150000D01*
X120055000Y-75660000D02*
X109815000Y-75660000D01*
X116785000Y-75660000D02*
X116785000Y-74150000D01*
%TO.C,C1*%
X141573000Y-97359000D02*
X142470000Y-97359000D01*
X144550000Y-98680000D02*
X146060000Y-98680000D01*
X144550000Y-97399000D02*
X145481000Y-97399000D01*
X141646000Y-97279000D02*
X142470000Y-97279000D01*
X141055000Y-98279000D02*
X142470000Y-98279000D01*
X140937000Y-98880000D02*
X146083000Y-98880000D01*
X140954000Y-98720000D02*
X142470000Y-98720000D01*
X144550000Y-98359000D02*
X145990000Y-98359000D01*
X144550000Y-97279000D02*
X145374000Y-97279000D01*
X144550000Y-97079000D02*
X145163000Y-97079000D01*
X141811000Y-97119000D02*
X142470000Y-97119000D01*
X141609000Y-97319000D02*
X142470000Y-97319000D01*
X144550000Y-98239000D02*
X145952000Y-98239000D01*
X144550000Y-97759000D02*
X145734000Y-97759000D01*
X140999000Y-98480000D02*
X142470000Y-98480000D01*
X141785000Y-101634775D02*
X142285000Y-101634775D01*
X144550000Y-97159000D02*
X145253000Y-97159000D01*
X140960000Y-98680000D02*
X142470000Y-98680000D01*
X142259000Y-96799000D02*
X142470000Y-96799000D01*
X142499000Y-96679000D02*
X144521000Y-96679000D01*
X141361000Y-97639000D02*
X142470000Y-97639000D01*
X141068000Y-98239000D02*
X142470000Y-98239000D01*
X140941000Y-98840000D02*
X142470000Y-98840000D01*
X141242000Y-97839000D02*
X142470000Y-97839000D01*
X144550000Y-97839000D02*
X145778000Y-97839000D01*
X144550000Y-98440000D02*
X146011000Y-98440000D01*
X142332000Y-96759000D02*
X144688000Y-96759000D01*
X144550000Y-97199000D02*
X145295000Y-97199000D01*
X144550000Y-98119000D02*
X145908000Y-98119000D01*
X141200000Y-97919000D02*
X142470000Y-97919000D01*
X141475000Y-97479000D02*
X142470000Y-97479000D01*
X144550000Y-96999000D02*
X145064000Y-96999000D01*
X141009000Y-98440000D02*
X142470000Y-98440000D01*
X142067000Y-96919000D02*
X142470000Y-96919000D01*
X144550000Y-98039000D02*
X145875000Y-98039000D01*
X144550000Y-97439000D02*
X145514000Y-97439000D01*
X144550000Y-96959000D02*
X145010000Y-96959000D01*
X144550000Y-97559000D02*
X145605000Y-97559000D01*
X144550000Y-97479000D02*
X145545000Y-97479000D01*
X140932000Y-98960000D02*
X146088000Y-98960000D01*
X141388000Y-97599000D02*
X142470000Y-97599000D01*
X144550000Y-98079000D02*
X145892000Y-98079000D01*
X140930000Y-99040000D02*
X146090000Y-99040000D01*
X142705000Y-96599000D02*
X144315000Y-96599000D01*
X144550000Y-97639000D02*
X145659000Y-97639000D01*
X144550000Y-97919000D02*
X145820000Y-97919000D01*
X144550000Y-96839000D02*
X144829000Y-96839000D01*
X140990000Y-98520000D02*
X142470000Y-98520000D01*
X144550000Y-97879000D02*
X145800000Y-97879000D01*
X141335000Y-97679000D02*
X142470000Y-97679000D01*
X142833000Y-96559000D02*
X144187000Y-96559000D01*
X141415000Y-97559000D02*
X142470000Y-97559000D01*
X141019000Y-98400000D02*
X142470000Y-98400000D01*
X144550000Y-96799000D02*
X144761000Y-96799000D01*
X140974000Y-98600000D02*
X142470000Y-98600000D01*
X144550000Y-96879000D02*
X144893000Y-96879000D01*
X141956000Y-96999000D02*
X142470000Y-96999000D01*
X140945000Y-98800000D02*
X142470000Y-98800000D01*
X144550000Y-97679000D02*
X145685000Y-97679000D01*
X144550000Y-98319000D02*
X145978000Y-98319000D01*
X141905000Y-97039000D02*
X142470000Y-97039000D01*
X144550000Y-98480000D02*
X146021000Y-98480000D01*
X144550000Y-97999000D02*
X145858000Y-97999000D01*
X144550000Y-98279000D02*
X145965000Y-98279000D01*
X144550000Y-98199000D02*
X145938000Y-98199000D01*
X144550000Y-98840000D02*
X146079000Y-98840000D01*
X142127000Y-96879000D02*
X142470000Y-96879000D01*
X144550000Y-97959000D02*
X145839000Y-97959000D01*
X144550000Y-97359000D02*
X145447000Y-97359000D01*
X140930000Y-99080000D02*
X146090000Y-99080000D01*
X141506000Y-97439000D02*
X142470000Y-97439000D01*
X144550000Y-98720000D02*
X146066000Y-98720000D01*
X141445000Y-97519000D02*
X142470000Y-97519000D01*
X144550000Y-97719000D02*
X145710000Y-97719000D01*
X140931000Y-99000000D02*
X146089000Y-99000000D01*
X141128000Y-98079000D02*
X142470000Y-98079000D01*
X141162000Y-97999000D02*
X142470000Y-97999000D01*
X141042000Y-98319000D02*
X142470000Y-98319000D01*
X141030000Y-98359000D02*
X142470000Y-98359000D01*
X140949000Y-98760000D02*
X142470000Y-98760000D01*
X144550000Y-97039000D02*
X145115000Y-97039000D01*
X144550000Y-98560000D02*
X146038000Y-98560000D01*
X142010000Y-96959000D02*
X142470000Y-96959000D01*
X144550000Y-98400000D02*
X146001000Y-98400000D01*
X141857000Y-97079000D02*
X142470000Y-97079000D01*
X141096000Y-98159000D02*
X142470000Y-98159000D01*
X144550000Y-96919000D02*
X144953000Y-96919000D01*
X140982000Y-98560000D02*
X142470000Y-98560000D01*
X144550000Y-97119000D02*
X145209000Y-97119000D01*
X142191000Y-96839000D02*
X142470000Y-96839000D01*
X144550000Y-98640000D02*
X146053000Y-98640000D01*
X141310000Y-97719000D02*
X142470000Y-97719000D01*
X144550000Y-98600000D02*
X146046000Y-98600000D01*
X141539000Y-97399000D02*
X142470000Y-97399000D01*
X144550000Y-98159000D02*
X145924000Y-98159000D01*
X141082000Y-98199000D02*
X142470000Y-98199000D01*
X142595000Y-96639000D02*
X144425000Y-96639000D01*
X141767000Y-97159000D02*
X142470000Y-97159000D01*
X144550000Y-97599000D02*
X145632000Y-97599000D01*
X141684000Y-97239000D02*
X142470000Y-97239000D01*
X144550000Y-98760000D02*
X146071000Y-98760000D01*
X144550000Y-97519000D02*
X145575000Y-97519000D01*
X142412000Y-96719000D02*
X144608000Y-96719000D01*
X144550000Y-97319000D02*
X145411000Y-97319000D01*
X141181000Y-97959000D02*
X142470000Y-97959000D01*
X141145000Y-98039000D02*
X142470000Y-98039000D01*
X141112000Y-98119000D02*
X142470000Y-98119000D01*
X142035000Y-101884775D02*
X142035000Y-101384775D01*
X141725000Y-97199000D02*
X142470000Y-97199000D01*
X144550000Y-98800000D02*
X146075000Y-98800000D01*
X141263000Y-97799000D02*
X142470000Y-97799000D01*
X144550000Y-98520000D02*
X146030000Y-98520000D01*
X140967000Y-98640000D02*
X142470000Y-98640000D01*
X144550000Y-97799000D02*
X145757000Y-97799000D01*
X144550000Y-97239000D02*
X145336000Y-97239000D01*
X143226000Y-96479000D02*
X143794000Y-96479000D01*
X140934000Y-98920000D02*
X146086000Y-98920000D01*
X142992000Y-96519000D02*
X144028000Y-96519000D01*
X141286000Y-97759000D02*
X142470000Y-97759000D01*
X141220000Y-97879000D02*
X142470000Y-97879000D01*
X146130000Y-99080000D02*
G75*
G03*
X146130000Y-99080000I-2620000J0D01*
G01*
%TO.C,J1*%
X152952500Y-83840000D02*
X152452500Y-83340000D01*
X152452500Y-84340000D02*
X152952500Y-83840000D01*
X153152500Y-78980000D02*
X156902500Y-78980000D01*
X153152500Y-91200000D02*
X153152500Y-78980000D01*
X169772500Y-91200000D02*
X169772500Y-78980000D01*
X152452500Y-83340000D02*
X152452500Y-84340000D01*
X153152500Y-91200000D02*
X156902500Y-91200000D01*
X169772500Y-78980000D02*
X161802500Y-78980000D01*
X169772500Y-91200000D02*
X161802500Y-91200000D01*
%TO.C,R2*%
X150195000Y-80385000D02*
G75*
G03*
X150195000Y-80385000I-7320000J0D01*
G01*
%TO.C,R1*%
X125265000Y-69850000D02*
X125375000Y-69850000D01*
X125375000Y-72220000D02*
X137515000Y-72220000D01*
X137515000Y-72220000D02*
X137515000Y-67480000D01*
X125375000Y-67480000D02*
X125375000Y-72220000D01*
X137515000Y-67480000D02*
X125375000Y-67480000D01*
X137625000Y-69850000D02*
X137515000Y-69850000D01*
%TO.C,D1*%
X105375000Y-91420000D02*
X102285000Y-91420000D01*
X102285170Y-91420000D02*
G75*
G03*
X103830462Y-96970000I1544830J-2560000D01*
G01*
X103829538Y-96970000D02*
G75*
G03*
X105374830Y-91420000I462J2990000D01*
G01*
X106330000Y-93980000D02*
G75*
G03*
X106330000Y-93980000I-2500000J0D01*
G01*
%TO.C,R3*%
X114980000Y-88730000D02*
X114980000Y-83990000D01*
X102840000Y-83990000D02*
X102840000Y-88730000D01*
X115090000Y-86360000D02*
X114980000Y-86360000D01*
X102840000Y-88730000D02*
X114980000Y-88730000D01*
X102730000Y-86360000D02*
X102840000Y-86360000D01*
X114980000Y-83990000D02*
X102840000Y-83990000D01*
%TO.C,J2*%
X90930000Y-99655000D02*
X93110000Y-99655000D01*
X78840000Y-86035000D02*
X79460000Y-86035000D01*
X96110000Y-90245000D02*
X96110000Y-89445000D01*
X79460000Y-99655000D02*
X79460000Y-100655000D01*
X79460000Y-100655000D02*
X78840000Y-100655000D01*
X87430000Y-99655000D02*
X79460000Y-99655000D01*
X79460000Y-86035000D02*
X79460000Y-87035000D01*
X79460000Y-87035000D02*
X87430000Y-87035000D01*
X95960000Y-88155000D02*
X95960000Y-98535000D01*
X90930000Y-87035000D02*
X93110000Y-87035000D01*
X78840000Y-100655000D02*
X78840000Y-86035000D01*
%TO.C,Q1*%
X120055000Y-96940000D02*
X120055000Y-92299000D01*
X120055000Y-92299000D02*
X109815000Y-92299000D01*
X120055000Y-96940000D02*
X109815000Y-96940000D01*
X113084000Y-96940000D02*
X113084000Y-95430000D01*
X120055000Y-95430000D02*
X109815000Y-95430000D01*
X109815000Y-96940000D02*
X109815000Y-92299000D01*
X116785000Y-96940000D02*
X116785000Y-95430000D01*
%TO.C,D2*%
X101960000Y-76220000D02*
X105050000Y-76220000D01*
X103505462Y-70670000D02*
G75*
G03*
X101960170Y-76220000I-462J-2990000D01*
G01*
X105049830Y-76220000D02*
G75*
G03*
X103504538Y-70670000I-1544830J2560000D01*
G01*
X106005000Y-73660000D02*
G75*
G03*
X106005000Y-73660000I-2500000J0D01*
G01*
%TO.C,RV1*%
X125234000Y-96805000D02*
X123270000Y-96805000D01*
X123270000Y-89855000D02*
X123270000Y-96805000D01*
X128010000Y-89855000D02*
X126224000Y-89855000D01*
X128010000Y-89855000D02*
X128010000Y-96805000D01*
X125234000Y-89855000D02*
X123270000Y-89855000D01*
X128010000Y-96805000D02*
X126224000Y-96805000D01*
%TO.C,R4*%
X137440000Y-89070000D02*
X137440000Y-93810000D01*
X137330000Y-91440000D02*
X137440000Y-91440000D01*
X149580000Y-93810000D02*
X149580000Y-89070000D01*
X149690000Y-91440000D02*
X149580000Y-91440000D01*
X137440000Y-93810000D02*
X149580000Y-93810000D01*
X149580000Y-89070000D02*
X137440000Y-89070000D01*
%TO.C,J3*%
X90930000Y-81875000D02*
X93110000Y-81875000D01*
X90930000Y-69255000D02*
X93110000Y-69255000D01*
X79460000Y-81875000D02*
X79460000Y-82875000D01*
X78840000Y-68255000D02*
X79460000Y-68255000D01*
X87430000Y-81875000D02*
X79460000Y-81875000D01*
X79460000Y-69255000D02*
X87430000Y-69255000D01*
X96110000Y-72465000D02*
X96110000Y-71665000D01*
X79460000Y-68255000D02*
X79460000Y-69255000D01*
X78840000Y-82875000D02*
X78840000Y-68255000D01*
X95960000Y-70375000D02*
X95960000Y-80755000D01*
X79460000Y-82875000D02*
X78840000Y-82875000D01*
%TD*%
M02*
